<svg width="285" height="58" viewBox="0 0 285 58" fill="none" xmlns="http://www.w3.org/2000/svg">
<path d="M21.5194 4.72217C20.007 7.74686 16.0749 14.5222 12.4453 17.4259" stroke="#FF7562" stroke-width="2.5" stroke-linecap="round"/>
<path d="M14.2589 3.81494C12.7466 6.83963 12.4441 9.0779 8.81445 11.9816" stroke="#FF7562" stroke-width="2.5" stroke-linecap="round"/>
<path d="M31.5 2C28.7778 10.1667 20.0667 27.2259 7 30.1296" stroke="#FF7562" stroke-width="2.5" stroke-linecap="round"/>
<mask id="path-4-outside-1_69_377" maskUnits="userSpaceOnUse" x="46.5" y="-1" width="239" height="43" fill="black">
<rect fill="white" x="46.5" y="-1" width="239" height="43"/>
<path d="M65.7 8.52C64.6867 7.98667 63.5933 7.53333 62.42 7.16C61.2467 6.78666 60.1133 6.6 59.02 6.6C57.5267 6.6 56.34 6.94666 55.46 7.64C54.58 8.30666 54.14 9.22667 54.14 10.4C54.14 11.2267 54.4333 11.9467 55.02 12.56C55.6067 13.1733 56.3667 13.7067 57.3 14.16C58.2333 14.6133 59.22 15.04 60.26 15.44C61.14 15.76 62.0067 16.1467 62.86 16.6C63.74 17.0267 64.5267 17.56 65.22 18.2C65.94 18.84 66.5 19.64 66.9 20.6C67.3267 21.5333 67.54 22.68 67.54 24.04C67.54 25.5867 67.1533 26.9867 66.38 28.24C65.6333 29.4933 64.54 30.4933 63.1 31.24C61.6867 31.96 59.9667 32.32 57.94 32.32C56.7133 32.32 55.5133 32.1867 54.34 31.92C53.1933 31.6267 52.1 31.2533 51.06 30.8C50.0467 30.32 49.1267 29.8 48.3 29.24L50.22 25.92C50.86 26.3733 51.5933 26.8133 52.42 27.24C53.2467 27.64 54.1 27.96 54.98 28.2C55.8867 28.44 56.74 28.56 57.54 28.56C58.42 28.56 59.2867 28.4133 60.14 28.12C60.9933 27.8 61.7 27.32 62.26 26.68C62.82 26.0133 63.1 25.1467 63.1 24.08C63.1 23.1733 62.8467 22.4133 62.34 21.8C61.86 21.16 61.2067 20.6133 60.38 20.16C59.58 19.7067 58.7133 19.3067 57.78 18.96C56.8733 18.6133 55.9533 18.2267 55.02 17.8C54.0867 17.3733 53.22 16.8667 52.42 16.28C51.62 15.6667 50.9667 14.92 50.46 14.04C49.98 13.1333 49.74 12.0267 49.74 10.72C49.74 9.17333 50.1 7.82667 50.82 6.68C51.5667 5.50667 52.5933 4.58667 53.9 3.92C55.2067 3.25333 56.7133 2.88 58.42 2.8C60.3667 2.8 62.06 3.04 63.5 3.52C64.94 4 66.22 4.57333 67.34 5.24L65.7 8.52ZM82.9813 32.4C81.7546 32.4 80.5813 32.1333 79.4613 31.6C78.3413 31.04 77.4479 30.2933 76.7813 29.36L77.0213 28.12V40.04H72.9413V14.96H76.5013L77.0613 19.04L76.6213 17.88C77.4479 16.92 78.4613 16.12 79.6613 15.48C80.8879 14.84 82.2479 14.52 83.7413 14.52C85.3146 14.52 86.7279 14.8933 87.9813 15.64C89.2346 16.3867 90.2213 17.44 90.9413 18.8C91.6613 20.16 92.0213 21.76 92.0213 23.6C92.0213 25.4133 91.6213 26.9867 90.8213 28.32C90.0479 29.6267 88.9813 30.64 87.6213 31.36C86.2613 32.0533 84.7146 32.4 82.9813 32.4ZM82.1813 29.16C83.1946 29.16 84.1279 28.92 84.9813 28.44C85.8613 27.96 86.5546 27.3067 87.0613 26.48C87.5946 25.6267 87.8613 24.68 87.8613 23.64C87.8613 22.5467 87.6079 21.5867 87.1013 20.76C86.6213 19.9067 85.9679 19.24 85.1413 18.76C84.3413 18.28 83.4479 18.04 82.4613 18.04C81.5279 18.04 80.7013 18.2133 79.9813 18.56C79.2613 18.88 78.6479 19.3333 78.1413 19.92C77.6346 20.5067 77.2746 21.2133 77.0613 22.04V25.12C77.2213 25.8933 77.5413 26.5867 78.0213 27.2C78.5013 27.8133 79.1013 28.2933 79.8213 28.64C80.5413 28.9867 81.3279 29.16 82.1813 29.16ZM104.767 32.4C102.82 32.4 101.153 32.0267 99.7666 31.28C98.3799 30.5067 97.3132 29.4533 96.5666 28.12C95.8199 26.76 95.4466 25.2133 95.4466 23.48C95.4466 21.8267 95.8599 20.3333 96.6866 19C97.5399 17.64 98.6732 16.56 100.087 15.76C101.527 14.96 103.113 14.56 104.847 14.56C107.087 14.56 108.94 15.2133 110.407 16.52C111.9 17.8267 112.9 19.6533 113.407 22L99.7666 26.72L98.8066 24.32L109.727 20.4L108.887 20.92C108.567 20.0933 108.06 19.3733 107.367 18.76C106.673 18.12 105.727 17.8 104.527 17.8C103.567 17.8 102.7 18.04 101.927 18.52C101.18 18.9733 100.58 19.6133 100.127 20.44C99.6999 21.24 99.4866 22.1867 99.4866 23.28C99.4866 24.4 99.7132 25.3867 100.167 26.24C100.647 27.0667 101.287 27.72 102.087 28.2C102.913 28.68 103.833 28.92 104.847 28.92C105.567 28.92 106.247 28.7867 106.887 28.52C107.553 28.2533 108.18 27.92 108.767 27.52L110.647 30.56C109.767 31.12 108.807 31.5733 107.767 31.92C106.753 32.24 105.753 32.4 104.767 32.4ZM124.98 32.4C123.407 32.4 121.98 32.08 120.7 31.44C119.42 30.7733 118.407 29.7867 117.66 28.48C116.914 27.1733 116.54 25.56 116.54 23.64C116.54 21.7467 116.927 20.12 117.7 18.76C118.5 17.4 119.54 16.36 120.82 15.64C122.127 14.8933 123.54 14.52 125.06 14.52C126.66 14.52 127.967 14.8667 128.98 15.56C130.02 16.2267 130.834 17.0133 131.42 17.92L131.14 18.56L131.54 15.24H135.34V32H131.22V27.8L131.66 28.8C131.554 29.0133 131.327 29.32 130.98 29.72C130.634 30.0933 130.167 30.4933 129.58 30.92C129.02 31.3467 128.354 31.7067 127.58 32C126.834 32.2667 125.967 32.4 124.98 32.4ZM126.1 29.04C126.98 29.04 127.767 28.88 128.46 28.56C129.154 28.24 129.74 27.7867 130.22 27.2C130.7 26.6133 131.034 25.92 131.22 25.12V21.64C131.007 20.8933 130.647 20.2533 130.14 19.72C129.634 19.16 129.02 18.72 128.3 18.4C127.607 18.08 126.834 17.92 125.98 17.92C125.02 17.92 124.14 18.16 123.34 18.64C122.54 19.0933 121.9 19.7333 121.42 20.56C120.94 21.3867 120.7 22.3467 120.7 23.44C120.7 24.48 120.94 25.4267 121.42 26.28C121.927 27.1333 122.594 27.8133 123.42 28.32C124.247 28.8 125.14 29.04 126.1 29.04ZM141.652 32V0.92H145.772V32H141.652ZM149.852 20.8L157.532 32H152.732L147.132 23.16L149.852 20.8ZM144.492 26.84L144.092 22.88L154.252 14.88L156.772 17.08L144.492 26.84Z"/>
<path d="M178.005 8.52C176.991 7.98667 175.898 7.53333 174.725 7.16C173.551 6.78666 172.418 6.6 171.325 6.6C169.831 6.6 168.645 6.94666 167.765 7.64C166.885 8.30666 166.445 9.22667 166.445 10.4C166.445 11.2267 166.738 11.9467 167.325 12.56C167.911 13.1733 168.671 13.7067 169.605 14.16C170.538 14.6133 171.525 15.04 172.565 15.44C173.445 15.76 174.311 16.1467 175.165 16.6C176.045 17.0267 176.831 17.56 177.525 18.2C178.245 18.84 178.805 19.64 179.205 20.6C179.631 21.5333 179.845 22.68 179.845 24.04C179.845 25.5867 179.458 26.9867 178.685 28.24C177.938 29.4933 176.845 30.4933 175.405 31.24C173.991 31.96 172.271 32.32 170.245 32.32C169.018 32.32 167.818 32.1867 166.645 31.92C165.498 31.6267 164.405 31.2533 163.365 30.8C162.351 30.32 161.431 29.8 160.605 29.24L162.525 25.92C163.165 26.3733 163.898 26.8133 164.725 27.24C165.551 27.64 166.405 27.96 167.285 28.2C168.191 28.44 169.045 28.56 169.845 28.56C170.725 28.56 171.591 28.4133 172.445 28.12C173.298 27.8 174.005 27.32 174.565 26.68C175.125 26.0133 175.405 25.1467 175.405 24.08C175.405 23.1733 175.151 22.4133 174.645 21.8C174.165 21.16 173.511 20.6133 172.685 20.16C171.885 19.7067 171.018 19.3067 170.085 18.96C169.178 18.6133 168.258 18.2267 167.325 17.8C166.391 17.3733 165.525 16.8667 164.725 16.28C163.925 15.6667 163.271 14.92 162.765 14.04C162.285 13.1333 162.045 12.0267 162.045 10.72C162.045 9.17333 162.405 7.82667 163.125 6.68C163.871 5.50667 164.898 4.58667 166.205 3.92C167.511 3.25333 169.018 2.88 170.725 2.8C172.671 2.8 174.365 3.04 175.805 3.52C177.245 4 178.525 4.57333 179.645 5.24L178.005 8.52ZM195.286 32.4C194.059 32.4 192.886 32.1333 191.766 31.6C190.646 31.04 189.753 30.2933 189.086 29.36L189.326 28.12V40.04H185.246V14.96H188.806L189.366 19.04L188.926 17.88C189.753 16.92 190.766 16.12 191.966 15.48C193.193 14.84 194.553 14.52 196.046 14.52C197.619 14.52 199.033 14.8933 200.286 15.64C201.539 16.3867 202.526 17.44 203.246 18.8C203.966 20.16 204.326 21.76 204.326 23.6C204.326 25.4133 203.926 26.9867 203.126 28.32C202.353 29.6267 201.286 30.64 199.926 31.36C198.566 32.0533 197.019 32.4 195.286 32.4ZM194.486 29.16C195.499 29.16 196.433 28.92 197.286 28.44C198.166 27.96 198.859 27.3067 199.366 26.48C199.899 25.6267 200.166 24.68 200.166 23.64C200.166 22.5467 199.913 21.5867 199.406 20.76C198.926 19.9067 198.273 19.24 197.446 18.76C196.646 18.28 195.753 18.04 194.766 18.04C193.833 18.04 193.006 18.2133 192.286 18.56C191.566 18.88 190.953 19.3333 190.446 19.92C189.939 20.5067 189.579 21.2133 189.366 22.04V25.12C189.526 25.8933 189.846 26.5867 190.326 27.2C190.806 27.8133 191.406 28.2933 192.126 28.64C192.846 28.9867 193.633 29.16 194.486 29.16ZM209.191 32V0.92H213.191V19.04L213.151 18.36C213.711 17.2667 214.565 16.36 215.711 15.64C216.858 14.92 218.231 14.56 219.831 14.56C221.405 14.56 222.698 15.0267 223.711 15.96C224.751 16.8933 225.285 18.1067 225.311 19.6V32H221.191V21.04C221.165 20.1867 220.911 19.4933 220.431 18.96C219.951 18.4 219.205 18.1067 218.191 18.08C217.285 18.08 216.458 18.36 215.711 18.92C214.965 19.4533 214.378 20.2 213.951 21.16C213.525 22.0933 213.311 23.16 213.311 24.36V32H209.191ZM239.493 32.4C237.546 32.4 235.88 32.0267 234.493 31.28C233.106 30.5067 232.04 29.4533 231.293 28.12C230.546 26.76 230.173 25.2133 230.173 23.48C230.173 21.8267 230.586 20.3333 231.413 19C232.266 17.64 233.4 16.56 234.813 15.76C236.253 14.96 237.84 14.56 239.573 14.56C241.813 14.56 243.666 15.2133 245.133 16.52C246.626 17.8267 247.626 19.6533 248.133 22L234.493 26.72L233.533 24.32L244.453 20.4L243.613 20.92C243.293 20.0933 242.786 19.3733 242.093 18.76C241.4 18.12 240.453 17.8 239.253 17.8C238.293 17.8 237.426 18.04 236.653 18.52C235.906 18.9733 235.306 19.6133 234.853 20.44C234.426 21.24 234.213 22.1867 234.213 23.28C234.213 24.4 234.44 25.3867 234.893 26.24C235.373 27.0667 236.013 27.72 236.813 28.2C237.64 28.68 238.56 28.92 239.573 28.92C240.293 28.92 240.973 28.7867 241.613 28.52C242.28 28.2533 242.906 27.92 243.493 27.52L245.373 30.56C244.493 31.12 243.533 31.5733 242.493 31.92C241.48 32.24 240.48 32.4 239.493 32.4ZM256.387 15.24L256.787 20.04L256.587 19.4C257.04 18.3867 257.68 17.52 258.507 16.8C259.334 16.08 260.187 15.5333 261.067 15.16C261.974 14.76 262.734 14.56 263.347 14.56L263.147 18.64C261.867 18.56 260.747 18.8 259.787 19.36C258.854 19.92 258.12 20.6667 257.587 21.6C257.054 22.5333 256.787 23.5333 256.787 24.6V32H252.707V15.24H256.387ZM275.196 32.4C273.25 32.4 271.583 32.0267 270.196 31.28C268.81 30.5067 267.743 29.4533 266.996 28.12C266.25 26.76 265.876 25.2133 265.876 23.48C265.876 21.8267 266.29 20.3333 267.116 19C267.97 17.64 269.103 16.56 270.516 15.76C271.956 14.96 273.543 14.56 275.276 14.56C277.516 14.56 279.37 15.2133 280.836 16.52C282.33 17.8267 283.33 19.6533 283.836 22L270.196 26.72L269.236 24.32L280.156 20.4L279.316 20.92C278.996 20.0933 278.49 19.3733 277.796 18.76C277.103 18.12 276.156 17.8 274.956 17.8C273.996 17.8 273.13 18.04 272.356 18.52C271.61 18.9733 271.01 19.6133 270.556 20.44C270.13 21.24 269.916 22.1867 269.916 23.28C269.916 24.4 270.143 25.3867 270.596 26.24C271.076 27.0667 271.716 27.72 272.516 28.2C273.343 28.68 274.263 28.92 275.276 28.92C275.996 28.92 276.676 28.7867 277.316 28.52C277.983 28.2533 278.61 27.92 279.196 27.52L281.076 30.56C280.196 31.12 279.236 31.5733 278.196 31.92C277.183 32.24 276.183 32.4 275.196 32.4Z"/>
</mask>
<path d="M65.7 8.52C64.6867 7.98667 63.5933 7.53333 62.42 7.16C61.2467 6.78666 60.1133 6.6 59.02 6.6C57.5267 6.6 56.34 6.94666 55.46 7.64C54.58 8.30666 54.14 9.22667 54.14 10.4C54.14 11.2267 54.4333 11.9467 55.02 12.56C55.6067 13.1733 56.3667 13.7067 57.3 14.16C58.2333 14.6133 59.22 15.04 60.26 15.44C61.14 15.76 62.0067 16.1467 62.86 16.6C63.74 17.0267 64.5267 17.56 65.22 18.2C65.94 18.84 66.5 19.64 66.9 20.6C67.3267 21.5333 67.54 22.68 67.54 24.04C67.54 25.5867 67.1533 26.9867 66.38 28.24C65.6333 29.4933 64.54 30.4933 63.1 31.24C61.6867 31.96 59.9667 32.32 57.94 32.32C56.7133 32.32 55.5133 32.1867 54.34 31.92C53.1933 31.6267 52.1 31.2533 51.06 30.8C50.0467 30.32 49.1267 29.8 48.3 29.24L50.22 25.92C50.86 26.3733 51.5933 26.8133 52.42 27.24C53.2467 27.64 54.1 27.96 54.98 28.2C55.8867 28.44 56.74 28.56 57.54 28.56C58.42 28.56 59.2867 28.4133 60.14 28.12C60.9933 27.8 61.7 27.32 62.26 26.68C62.82 26.0133 63.1 25.1467 63.1 24.08C63.1 23.1733 62.8467 22.4133 62.34 21.8C61.86 21.16 61.2067 20.6133 60.38 20.16C59.58 19.7067 58.7133 19.3067 57.78 18.96C56.8733 18.6133 55.9533 18.2267 55.02 17.8C54.0867 17.3733 53.22 16.8667 52.42 16.28C51.62 15.6667 50.9667 14.92 50.46 14.04C49.98 13.1333 49.74 12.0267 49.74 10.72C49.74 9.17333 50.1 7.82667 50.82 6.68C51.5667 5.50667 52.5933 4.58667 53.9 3.92C55.2067 3.25333 56.7133 2.88 58.42 2.8C60.3667 2.8 62.06 3.04 63.5 3.52C64.94 4 66.22 4.57333 67.34 5.24L65.7 8.52ZM82.9813 32.4C81.7546 32.4 80.5813 32.1333 79.4613 31.6C78.3413 31.04 77.4479 30.2933 76.7813 29.36L77.0213 28.12V40.04H72.9413V14.96H76.5013L77.0613 19.04L76.6213 17.88C77.4479 16.92 78.4613 16.12 79.6613 15.48C80.8879 14.84 82.2479 14.52 83.7413 14.52C85.3146 14.52 86.7279 14.8933 87.9813 15.64C89.2346 16.3867 90.2213 17.44 90.9413 18.8C91.6613 20.16 92.0213 21.76 92.0213 23.6C92.0213 25.4133 91.6213 26.9867 90.8213 28.32C90.0479 29.6267 88.9813 30.64 87.6213 31.36C86.2613 32.0533 84.7146 32.4 82.9813 32.4ZM82.1813 29.16C83.1946 29.16 84.1279 28.92 84.9813 28.44C85.8613 27.96 86.5546 27.3067 87.0613 26.48C87.5946 25.6267 87.8613 24.68 87.8613 23.64C87.8613 22.5467 87.6079 21.5867 87.1013 20.76C86.6213 19.9067 85.9679 19.24 85.1413 18.76C84.3413 18.28 83.4479 18.04 82.4613 18.04C81.5279 18.04 80.7013 18.2133 79.9813 18.56C79.2613 18.88 78.6479 19.3333 78.1413 19.92C77.6346 20.5067 77.2746 21.2133 77.0613 22.04V25.12C77.2213 25.8933 77.5413 26.5867 78.0213 27.2C78.5013 27.8133 79.1013 28.2933 79.8213 28.64C80.5413 28.9867 81.3279 29.16 82.1813 29.16ZM104.767 32.4C102.82 32.4 101.153 32.0267 99.7666 31.28C98.3799 30.5067 97.3132 29.4533 96.5666 28.12C95.8199 26.76 95.4466 25.2133 95.4466 23.48C95.4466 21.8267 95.8599 20.3333 96.6866 19C97.5399 17.64 98.6732 16.56 100.087 15.76C101.527 14.96 103.113 14.56 104.847 14.56C107.087 14.56 108.94 15.2133 110.407 16.52C111.9 17.8267 112.9 19.6533 113.407 22L99.7666 26.72L98.8066 24.32L109.727 20.4L108.887 20.92C108.567 20.0933 108.06 19.3733 107.367 18.76C106.673 18.12 105.727 17.8 104.527 17.8C103.567 17.8 102.7 18.04 101.927 18.52C101.18 18.9733 100.58 19.6133 100.127 20.44C99.6999 21.24 99.4866 22.1867 99.4866 23.28C99.4866 24.4 99.7132 25.3867 100.167 26.24C100.647 27.0667 101.287 27.72 102.087 28.2C102.913 28.68 103.833 28.92 104.847 28.92C105.567 28.92 106.247 28.7867 106.887 28.52C107.553 28.2533 108.18 27.92 108.767 27.52L110.647 30.56C109.767 31.12 108.807 31.5733 107.767 31.92C106.753 32.24 105.753 32.4 104.767 32.4ZM124.98 32.4C123.407 32.4 121.98 32.08 120.7 31.44C119.42 30.7733 118.407 29.7867 117.66 28.48C116.914 27.1733 116.54 25.56 116.54 23.64C116.54 21.7467 116.927 20.12 117.7 18.76C118.5 17.4 119.54 16.36 120.82 15.64C122.127 14.8933 123.54 14.52 125.06 14.52C126.66 14.52 127.967 14.8667 128.98 15.56C130.02 16.2267 130.834 17.0133 131.42 17.92L131.14 18.56L131.54 15.24H135.34V32H131.22V27.8L131.66 28.8C131.554 29.0133 131.327 29.32 130.98 29.72C130.634 30.0933 130.167 30.4933 129.58 30.92C129.02 31.3467 128.354 31.7067 127.58 32C126.834 32.2667 125.967 32.4 124.98 32.4ZM126.1 29.04C126.98 29.04 127.767 28.88 128.46 28.56C129.154 28.24 129.74 27.7867 130.22 27.2C130.7 26.6133 131.034 25.92 131.22 25.12V21.64C131.007 20.8933 130.647 20.2533 130.14 19.72C129.634 19.16 129.02 18.72 128.3 18.4C127.607 18.08 126.834 17.92 125.98 17.92C125.02 17.92 124.14 18.16 123.34 18.64C122.54 19.0933 121.9 19.7333 121.42 20.56C120.94 21.3867 120.7 22.3467 120.7 23.44C120.7 24.48 120.94 25.4267 121.42 26.28C121.927 27.1333 122.594 27.8133 123.42 28.32C124.247 28.8 125.14 29.04 126.1 29.04ZM141.652 32V0.92H145.772V32H141.652ZM149.852 20.8L157.532 32H152.732L147.132 23.16L149.852 20.8ZM144.492 26.84L144.092 22.88L154.252 14.88L156.772 17.08L144.492 26.84Z" fill="white"/>
<path d="M178.005 8.52C176.991 7.98667 175.898 7.53333 174.725 7.16C173.551 6.78666 172.418 6.6 171.325 6.6C169.831 6.6 168.645 6.94666 167.765 7.64C166.885 8.30666 166.445 9.22667 166.445 10.4C166.445 11.2267 166.738 11.9467 167.325 12.56C167.911 13.1733 168.671 13.7067 169.605 14.16C170.538 14.6133 171.525 15.04 172.565 15.44C173.445 15.76 174.311 16.1467 175.165 16.6C176.045 17.0267 176.831 17.56 177.525 18.2C178.245 18.84 178.805 19.64 179.205 20.6C179.631 21.5333 179.845 22.68 179.845 24.04C179.845 25.5867 179.458 26.9867 178.685 28.24C177.938 29.4933 176.845 30.4933 175.405 31.24C173.991 31.96 172.271 32.32 170.245 32.32C169.018 32.32 167.818 32.1867 166.645 31.92C165.498 31.6267 164.405 31.2533 163.365 30.8C162.351 30.32 161.431 29.8 160.605 29.24L162.525 25.92C163.165 26.3733 163.898 26.8133 164.725 27.24C165.551 27.64 166.405 27.96 167.285 28.2C168.191 28.44 169.045 28.56 169.845 28.56C170.725 28.56 171.591 28.4133 172.445 28.12C173.298 27.8 174.005 27.32 174.565 26.68C175.125 26.0133 175.405 25.1467 175.405 24.08C175.405 23.1733 175.151 22.4133 174.645 21.8C174.165 21.16 173.511 20.6133 172.685 20.16C171.885 19.7067 171.018 19.3067 170.085 18.96C169.178 18.6133 168.258 18.2267 167.325 17.8C166.391 17.3733 165.525 16.8667 164.725 16.28C163.925 15.6667 163.271 14.92 162.765 14.04C162.285 13.1333 162.045 12.0267 162.045 10.72C162.045 9.17333 162.405 7.82667 163.125 6.68C163.871 5.50667 164.898 4.58667 166.205 3.92C167.511 3.25333 169.018 2.88 170.725 2.8C172.671 2.8 174.365 3.04 175.805 3.52C177.245 4 178.525 4.57333 179.645 5.24L178.005 8.52ZM195.286 32.4C194.059 32.4 192.886 32.1333 191.766 31.6C190.646 31.04 189.753 30.2933 189.086 29.36L189.326 28.12V40.04H185.246V14.96H188.806L189.366 19.04L188.926 17.88C189.753 16.92 190.766 16.12 191.966 15.48C193.193 14.84 194.553 14.52 196.046 14.52C197.619 14.52 199.033 14.8933 200.286 15.64C201.539 16.3867 202.526 17.44 203.246 18.8C203.966 20.16 204.326 21.76 204.326 23.6C204.326 25.4133 203.926 26.9867 203.126 28.32C202.353 29.6267 201.286 30.64 199.926 31.36C198.566 32.0533 197.019 32.4 195.286 32.4ZM194.486 29.16C195.499 29.16 196.433 28.92 197.286 28.44C198.166 27.96 198.859 27.3067 199.366 26.48C199.899 25.6267 200.166 24.68 200.166 23.64C200.166 22.5467 199.913 21.5867 199.406 20.76C198.926 19.9067 198.273 19.24 197.446 18.76C196.646 18.28 195.753 18.04 194.766 18.04C193.833 18.04 193.006 18.2133 192.286 18.56C191.566 18.88 190.953 19.3333 190.446 19.92C189.939 20.5067 189.579 21.2133 189.366 22.04V25.12C189.526 25.8933 189.846 26.5867 190.326 27.2C190.806 27.8133 191.406 28.2933 192.126 28.64C192.846 28.9867 193.633 29.16 194.486 29.16ZM209.191 32V0.92H213.191V19.04L213.151 18.36C213.711 17.2667 214.565 16.36 215.711 15.64C216.858 14.92 218.231 14.56 219.831 14.56C221.405 14.56 222.698 15.0267 223.711 15.96C224.751 16.8933 225.285 18.1067 225.311 19.6V32H221.191V21.04C221.165 20.1867 220.911 19.4933 220.431 18.96C219.951 18.4 219.205 18.1067 218.191 18.08C217.285 18.08 216.458 18.36 215.711 18.92C214.965 19.4533 214.378 20.2 213.951 21.16C213.525 22.0933 213.311 23.16 213.311 24.36V32H209.191ZM239.493 32.4C237.546 32.4 235.88 32.0267 234.493 31.28C233.106 30.5067 232.04 29.4533 231.293 28.12C230.546 26.76 230.173 25.2133 230.173 23.48C230.173 21.8267 230.586 20.3333 231.413 19C232.266 17.64 233.4 16.56 234.813 15.76C236.253 14.96 237.84 14.56 239.573 14.56C241.813 14.56 243.666 15.2133 245.133 16.52C246.626 17.8267 247.626 19.6533 248.133 22L234.493 26.72L233.533 24.32L244.453 20.4L243.613 20.92C243.293 20.0933 242.786 19.3733 242.093 18.76C241.4 18.12 240.453 17.8 239.253 17.8C238.293 17.8 237.426 18.04 236.653 18.52C235.906 18.9733 235.306 19.6133 234.853 20.44C234.426 21.24 234.213 22.1867 234.213 23.28C234.213 24.4 234.44 25.3867 234.893 26.24C235.373 27.0667 236.013 27.72 236.813 28.2C237.64 28.68 238.56 28.92 239.573 28.92C240.293 28.92 240.973 28.7867 241.613 28.52C242.28 28.2533 242.906 27.92 243.493 27.52L245.373 30.56C244.493 31.12 243.533 31.5733 242.493 31.92C241.48 32.24 240.48 32.4 239.493 32.4ZM256.387 15.24L256.787 20.04L256.587 19.4C257.04 18.3867 257.68 17.52 258.507 16.8C259.334 16.08 260.187 15.5333 261.067 15.16C261.974 14.76 262.734 14.56 263.347 14.56L263.147 18.64C261.867 18.56 260.747 18.8 259.787 19.36C258.854 19.92 258.12 20.6667 257.587 21.6C257.054 22.5333 256.787 23.5333 256.787 24.6V32H252.707V15.24H256.387ZM275.196 32.4C273.25 32.4 271.583 32.0267 270.196 31.28C268.81 30.5067 267.743 29.4533 266.996 28.12C266.25 26.76 265.876 25.2133 265.876 23.48C265.876 21.8267 266.29 20.3333 267.116 19C267.97 17.64 269.103 16.56 270.516 15.76C271.956 14.96 273.543 14.56 275.276 14.56C277.516 14.56 279.37 15.2133 280.836 16.52C282.33 17.8267 283.33 19.6533 283.836 22L270.196 26.72L269.236 24.32L280.156 20.4L279.316 20.92C278.996 20.0933 278.49 19.3733 277.796 18.76C277.103 18.12 276.156 17.8 274.956 17.8C273.996 17.8 273.13 18.04 272.356 18.52C271.61 18.9733 271.01 19.6133 270.556 20.44C270.13 21.24 269.916 22.1867 269.916 23.28C269.916 24.4 270.143 25.3867 270.596 26.24C271.076 27.0667 271.716 27.72 272.516 28.2C273.343 28.68 274.263 28.92 275.276 28.92C275.996 28.92 276.676 28.7867 277.316 28.52C277.983 28.2533 278.61 27.92 279.196 27.52L281.076 30.56C280.196 31.12 279.236 31.5733 278.196 31.92C277.183 32.24 276.183 32.4 275.196 32.4Z" fill="#FF7562"/>
<path d="M65.7 8.52L65.2343 9.40492L66.1378 9.88047L66.5944 8.96721L65.7 8.52ZM62.42 7.16L62.7232 6.20707L62.42 7.16ZM55.46 7.64L56.0639 8.43709L56.0714 8.43136L56.0789 8.42549L55.46 7.64ZM55.02 12.56L55.7426 11.8688V11.8688L55.02 12.56ZM57.3 14.16L56.8631 15.0595V15.0595L57.3 14.16ZM60.26 15.44L59.901 16.3733L59.9096 16.3766L59.9183 16.3798L60.26 15.44ZM62.86 16.6L62.3908 17.4831L62.4071 17.4918L62.4237 17.4998L62.86 16.6ZM65.22 18.2L64.5417 18.9348L64.5486 18.9412L64.5556 18.9474L65.22 18.2ZM66.9 20.6L65.9769 20.9846L65.9835 21.0003L65.9905 21.0158L66.9 20.6ZM66.38 28.24L65.529 27.7149L65.5249 27.7215L65.5209 27.7282L66.38 28.24ZM63.1 31.24L63.5539 32.1311L63.5603 32.1278L63.1 31.24ZM54.34 31.92L54.0922 32.8888L54.1052 32.8921L54.1184 32.8951L54.34 31.92ZM51.06 30.8L50.6319 31.7037L50.6461 31.7104L50.6604 31.7167L51.06 30.8ZM48.3 29.24L47.4343 28.7394L46.9681 29.5456L47.7392 30.0679L48.3 29.24ZM50.22 25.92L50.798 25.104L49.9033 24.4702L49.3543 25.4194L50.22 25.92ZM52.42 27.24L51.9614 28.1286L51.9728 28.1345L51.9844 28.1402L52.42 27.24ZM54.98 28.2L54.7169 29.1648L54.7241 29.1667L54.98 28.2ZM60.14 28.12L60.4651 29.0657L60.4782 29.0612L60.4911 29.0563L60.14 28.12ZM62.26 26.68L63.0126 27.3385L63.0192 27.3309L63.0257 27.3232L62.26 26.68ZM62.34 21.8L61.54 22.4L61.5541 22.4188L61.569 22.4369L62.34 21.8ZM60.38 20.16L59.8869 21.0301L59.8992 21.0368L60.38 20.16ZM57.78 18.96L57.4228 19.8941L57.4318 19.8974L57.78 18.96ZM55.02 17.8L55.4358 16.8905L55.02 17.8ZM52.42 16.28L51.8116 17.0736L51.82 17.0801L51.8286 17.0864L52.42 16.28ZM50.46 14.04L49.5762 14.5079L49.5845 14.5236L49.5934 14.539L50.46 14.04ZM50.82 6.68L49.9763 6.14311L49.9731 6.14823L50.82 6.68ZM53.9 3.92L54.3545 4.81076L54.3545 4.81076L53.9 3.92ZM58.42 2.8V1.8H58.3966L58.3732 1.8011L58.42 2.8ZM63.5 3.52L63.1838 4.46868L63.5 3.52ZM67.34 5.24L68.2344 5.68721L68.65 4.85603L67.8515 4.38071L67.34 5.24ZM66.1657 7.63508C65.0966 7.07238 63.9485 6.59692 62.7232 6.20707L62.1168 8.11292C63.2382 8.46974 64.2767 8.90095 65.2343 9.40492L66.1657 7.63508ZM62.7232 6.20707C61.464 5.80642 60.2283 5.6 59.02 5.6V7.6C59.9984 7.6 61.0293 7.7669 62.1168 8.11292L62.7232 6.20707ZM59.02 5.6C57.3768 5.6 55.9483 5.98215 54.8411 6.85451L56.0789 8.42549C56.7317 7.91118 57.6765 7.6 59.02 7.6V5.6ZM54.8561 6.84291C53.7089 7.71201 53.14 8.93647 53.14 10.4H55.14C55.14 9.51686 55.4511 8.90132 56.0639 8.43709L54.8561 6.84291ZM53.14 10.4C53.14 11.4917 53.538 12.4573 54.2974 13.2512L55.7426 11.8688C55.3287 11.436 55.14 10.9616 55.14 10.4H53.14ZM54.2974 13.2512C54.9821 13.9671 55.8459 14.5654 56.8631 15.0595L57.7369 13.2605C56.8874 12.8479 56.2312 12.3795 55.7426 11.8688L54.2974 13.2512ZM56.8631 15.0595C57.8237 15.5261 58.8365 15.9639 59.901 16.3733L60.619 14.5067C59.6035 14.1161 58.643 13.7006 57.7369 13.2605L56.8631 15.0595ZM59.9183 16.3798C60.7531 16.6834 61.5773 17.0509 62.3908 17.4831L63.3292 15.7169C62.436 15.2424 61.5269 14.8366 60.6017 14.5002L59.9183 16.3798ZM62.4237 17.4998C63.2186 17.8852 63.9231 18.3638 64.5417 18.9348L65.8983 17.4652C65.1302 16.7562 64.2614 16.1681 63.2963 15.7002L62.4237 17.4998ZM64.5556 18.9474C65.1544 19.4797 65.6301 20.1522 65.9769 20.9846L67.8231 20.2154C67.3699 19.1278 66.7256 18.2003 65.8844 17.4526L64.5556 18.9474ZM65.9905 21.0158C66.3415 21.7835 66.54 22.779 66.54 24.04H68.54C68.54 22.581 68.3119 21.2832 67.8095 20.1842L65.9905 21.0158ZM66.54 24.04C66.54 25.411 66.1999 26.6275 65.529 27.7149L67.231 28.7651C68.1068 27.3458 68.54 25.7624 68.54 24.04H66.54ZM65.5209 27.7282C64.88 28.804 63.9334 29.6814 62.6397 30.3522L63.5603 32.1278C65.1466 31.3052 66.3867 30.1826 67.2391 28.7518L65.5209 27.7282ZM62.6461 30.349C61.4069 30.9802 59.8514 31.32 57.94 31.32V33.32C60.0819 33.32 61.9664 32.9398 63.5539 32.131L62.6461 30.349ZM57.94 31.32C56.7864 31.32 55.6608 31.1947 54.5616 30.9449L54.1184 32.8951C55.3658 33.1786 56.6402 33.32 57.94 33.32V31.32ZM54.5878 30.9512C53.4908 30.6706 52.4484 30.3143 51.4596 29.8833L50.6604 31.7167C51.7516 32.1923 52.8958 32.5828 54.0922 32.8888L54.5878 30.9512ZM51.4881 29.8963C50.5154 29.4355 49.6405 28.9402 48.8608 28.4121L47.7392 30.0679C48.6128 30.6598 49.578 31.2045 50.6319 31.7037L51.4881 29.8963ZM49.1657 29.7406L51.0857 26.4206L49.3543 25.4194L47.4343 28.7394L49.1657 29.7406ZM49.642 26.736C50.3263 27.2207 51.1006 27.6844 51.9614 28.1286L52.8786 26.3514C52.086 25.9423 51.3937 25.5259 50.798 25.104L49.642 26.736ZM51.9844 28.1402C52.8661 28.5668 53.7771 28.9085 54.7169 29.1648L55.2431 27.2352C54.4229 27.0115 53.6272 26.7132 52.8556 26.3398L51.9844 28.1402ZM54.7241 29.1667C55.7003 29.4251 56.6403 29.56 57.54 29.56V27.56C56.8397 27.56 56.073 27.4549 55.2359 27.2333L54.7241 29.1667ZM57.54 29.56C58.5334 29.56 59.5098 29.3941 60.4651 29.0657L59.8149 27.1743C59.0635 27.4326 58.3066 27.56 57.54 27.56V29.56ZM60.4911 29.0563C61.4878 28.6826 62.336 28.1117 63.0126 27.3385L61.5074 26.0215C61.064 26.5283 60.4989 26.9174 59.7889 27.1837L60.4911 29.0563ZM63.0257 27.3232C63.769 26.4384 64.1 25.327 64.1 24.08H62.1C62.1 24.9663 61.871 25.5883 61.4943 26.0368L63.0257 27.3232ZM64.1 24.08C64.1 22.9752 63.7862 21.9805 63.111 21.1631L61.569 22.4369C61.9072 22.8462 62.1 23.3715 62.1 24.08H64.1ZM63.14 21.2C62.5606 20.4275 61.7903 19.7929 60.8608 19.2832L59.8992 21.0368C60.623 21.4337 61.1594 21.8925 61.54 22.4L63.14 21.2ZM60.873 19.29C60.023 18.8083 59.1074 18.3863 58.1282 18.0226L57.4318 19.8974C58.3192 20.227 59.137 20.605 59.887 21.03L60.873 19.29ZM58.1371 18.0259C57.2514 17.6873 56.3509 17.3089 55.4358 16.8905L54.6042 18.7095C55.5558 19.1445 56.4953 19.5394 57.4229 19.8941L58.1371 18.0259ZM55.4358 16.8905C54.5622 16.4912 53.7546 16.0187 53.0114 15.4736L51.8286 17.0864C52.6854 17.7147 53.6111 18.2555 54.6042 18.7095L55.4358 16.8905ZM53.0284 15.4864C52.3339 14.9539 51.768 14.3076 51.3266 13.541L49.5934 14.539C50.1653 15.5324 50.9061 16.3794 51.8116 17.0736L53.0284 15.4864ZM51.3438 13.5721C50.9582 12.8437 50.74 11.9071 50.74 10.72H48.74C48.74 12.1462 49.0018 13.423 49.5762 14.5079L51.3438 13.5721ZM50.74 10.72C50.74 9.33405 51.0606 8.17738 51.6669 7.21177L49.9731 6.14823C49.1394 7.47595 48.74 9.01262 48.74 10.72H50.74ZM51.6637 7.21687C52.3092 6.20248 53.1977 5.40093 54.3545 4.81076L53.4455 3.02924C51.9889 3.7724 50.8241 4.81085 49.9763 6.14312L51.6637 7.21687ZM54.3545 4.81076C55.5153 4.2185 56.879 3.87333 58.4668 3.7989L58.3732 1.8011C56.5477 1.88666 54.898 2.28817 53.4455 3.02924L54.3545 4.81076ZM58.42 3.8C60.288 3.8 61.8699 4.03072 63.1838 4.46868L63.8162 2.57132C62.2501 2.04928 60.4453 1.8 58.42 1.8V3.8ZM63.1838 4.46868C64.5665 4.9296 65.7793 5.47476 66.8285 6.09929L67.8515 4.38071C66.6607 3.6719 65.3135 3.0704 63.8162 2.57132L63.1838 4.46868ZM66.4456 4.79279L64.8056 8.07279L66.5944 8.96721L68.2344 5.68721L66.4456 4.79279ZM79.4613 31.6L79.014 32.4944L79.0226 32.4987L79.0313 32.5029L79.4613 31.6ZM76.7812 29.36L75.7995 29.17L75.7178 29.5917L75.9675 29.9412L76.7812 29.36ZM77.0212 28.12H78.0212L76.0395 27.93L77.0212 28.12ZM77.0212 40.04V41.04H78.0212V40.04H77.0212ZM72.9412 40.04H71.9412V41.04H72.9412V40.04ZM72.9412 14.96V13.96H71.9412V14.96H72.9412ZM76.5013 14.96L77.492 14.824L77.3734 13.96H76.5013V14.96ZM77.0613 19.04L76.1263 19.3947L78.052 18.904L77.0613 19.04ZM76.6213 17.88L75.8635 17.2275L75.4752 17.6783L75.6863 18.2347L76.6213 17.88ZM79.6613 15.48L79.1987 14.5934L79.1907 14.5976L79.6613 15.48ZM87.9813 15.64L87.4694 16.4991V16.4991L87.9813 15.64ZM90.8213 28.32L89.9637 27.8055L89.9607 27.8107L90.8213 28.32ZM87.6213 31.36L88.0754 32.2509L88.0823 32.2474L88.0891 32.2438L87.6213 31.36ZM84.9813 28.44L84.5024 27.562L84.491 27.5684L84.9813 28.44ZM87.0612 26.48L86.2132 25.95L86.2086 25.9574L87.0612 26.48ZM87.1012 20.76L86.2297 21.2503L86.2389 21.2666L86.2486 21.2826L87.1012 20.76ZM85.1413 18.76L84.6268 19.6175L84.6329 19.6212L84.6391 19.6248L85.1413 18.76ZM79.9813 18.56L80.3874 19.4738L80.4013 19.4676L80.4151 19.461L79.9813 18.56ZM78.1413 19.92L77.3844 19.2664L77.3844 19.2664L78.1413 19.92ZM77.0613 22.04L76.093 21.7901L76.0613 21.913V22.04H77.0613ZM77.0613 25.12H76.0613V25.2224L76.082 25.3226L77.0613 25.12ZM78.0212 27.2L78.8088 26.5837V26.5837L78.0212 27.2ZM79.8213 28.64L80.2551 27.739L79.8213 28.64ZM82.9813 31.4C81.9051 31.4 80.8784 31.1673 79.8912 30.6971L79.0313 32.5029C80.284 33.0994 81.6041 33.4 82.9813 33.4V31.4ZM79.9085 30.7056C78.9207 30.2117 78.1583 29.5675 77.595 28.7788L75.9675 29.9412C76.7375 31.0192 77.7618 31.8683 79.014 32.4944L79.9085 30.7056ZM77.763 29.55L78.003 28.31L76.0395 27.93L75.7995 29.17L77.763 29.55ZM76.0212 28.12V40.04H78.0212V28.12H76.0212ZM77.0212 39.04H72.9412V41.04H77.0212V39.04ZM73.9412 40.04V14.96H71.9412V40.04H73.9412ZM72.9412 15.96H76.5013V13.96H72.9412V15.96ZM75.5105 15.096L76.0705 19.176L78.052 18.904L77.492 14.824L75.5105 15.096ZM77.9962 18.6853L77.5562 17.5253L75.6863 18.2347L76.1263 19.3947L77.9962 18.6853ZM77.379 18.5325C78.1192 17.6729 79.0329 16.9485 80.1318 16.3624L79.1907 14.5976C77.8896 15.2915 76.7766 16.1671 75.8635 17.2275L77.379 18.5325ZM80.1238 16.3666C81.1965 15.8069 82.3959 15.52 83.7412 15.52V13.52C82.0999 13.52 80.5793 13.8731 79.1987 14.5934L80.1238 16.3666ZM83.7412 15.52C85.149 15.52 86.383 15.8519 87.4694 16.4991L88.4931 14.7809C87.0728 13.9348 85.4801 13.52 83.7412 13.52V15.52ZM87.4694 16.4991C88.5565 17.1467 89.4183 18.0607 90.0575 19.2679L91.825 18.3321C91.0242 16.8193 89.9127 15.6266 88.4931 14.7809L87.4694 16.4991ZM90.0575 19.2679C90.6876 20.4581 91.0213 21.8913 91.0213 23.6H93.0213C93.0213 21.6287 92.6349 19.8619 91.825 18.3321L90.0575 19.2679ZM91.0213 23.6C91.0213 25.2626 90.656 26.6518 89.9638 27.8055L91.6787 28.8345C92.5865 27.3215 93.0213 25.5641 93.0213 23.6H91.0213ZM89.9607 27.8107C89.2826 28.9565 88.3528 29.8412 87.1534 30.4762L88.0891 32.2438C89.6097 31.4388 90.8133 30.2969 91.6818 28.8293L89.9607 27.8107ZM87.1671 30.4691C85.9657 31.0815 84.5783 31.4 82.9813 31.4V33.4C84.8509 33.4 86.5568 33.0251 88.0754 32.2509L87.1671 30.4691ZM82.1813 30.16C83.3601 30.16 84.4631 29.8788 85.4715 29.3116L84.491 27.5684C83.7927 27.9612 83.0291 28.16 82.1813 28.16V30.16ZM85.4601 29.3179C86.4882 28.7571 87.3126 27.9835 87.9139 27.0026L86.2086 25.9574C85.7965 26.6298 85.2343 27.1629 84.5024 27.5621L85.4601 29.3179ZM87.9092 27.01C88.5454 25.9922 88.8613 24.8608 88.8613 23.64H86.8613C86.8613 24.4992 86.6438 25.2611 86.2133 25.95L87.9092 27.01ZM88.8613 23.64C88.8613 22.3864 88.5688 21.2407 87.9539 20.2374L86.2486 21.2826C86.647 21.9326 86.8613 22.707 86.8613 23.64H88.8613ZM87.9728 20.2697C87.4075 19.2648 86.6283 18.4671 85.6434 17.8952L84.6391 19.6248C85.3075 20.0129 85.835 20.5486 86.2297 21.2503L87.9728 20.2697ZM85.6557 17.9025C84.6913 17.3238 83.6183 17.04 82.4613 17.04V19.04C83.2775 19.04 83.9912 19.2362 84.6268 19.6175L85.6557 17.9025ZM82.4613 17.04C81.4028 17.04 80.4237 17.2371 79.5474 17.659L80.4151 19.461C80.9788 19.1896 81.653 19.04 82.4613 19.04V17.04ZM79.5751 17.6462C78.7228 18.025 77.989 18.5663 77.3844 19.2664L78.8981 20.5736C79.3068 20.1003 79.7997 19.735 80.3874 19.4738L79.5751 17.6462ZM77.3844 19.2664C76.7673 19.981 76.3408 20.8297 76.093 21.7901L78.0295 22.2899C78.2083 21.5969 78.5019 21.0324 78.8981 20.5736L77.3844 19.2664ZM76.0613 22.04V25.12H78.0613V22.04H76.0613ZM76.082 25.3226C76.2727 26.2446 76.6575 27.0799 77.2337 27.8163L78.8088 26.5837C78.425 26.0934 78.1698 25.5421 78.0405 24.9174L76.082 25.3226ZM77.2337 27.8163C77.8108 28.5536 78.533 29.1296 79.3874 29.541L80.2551 27.739C79.6695 27.4571 79.1917 27.0731 78.8088 26.5837L77.2337 27.8163ZM79.3874 29.541C80.2518 29.9572 81.1881 30.16 82.1813 30.16V28.16C81.4677 28.16 80.8307 28.0161 80.2551 27.739L79.3874 29.541ZM99.7666 31.28L99.2795 32.1534L99.286 32.157L99.2925 32.1605L99.7666 31.28ZM96.5666 28.12L95.69 28.6013L95.6941 28.6086L96.5666 28.12ZM96.6866 19L95.8395 18.4685L95.8367 18.4731L96.6866 19ZM100.087 15.76L99.6009 14.8858L99.594 14.8897L100.087 15.76ZM110.407 16.52L109.741 17.2667L109.748 17.2726L110.407 16.52ZM113.407 22L113.734 22.945L114.571 22.6552L114.384 21.789L113.407 22ZM99.7666 26.72L98.8381 27.0914L99.1923 27.9769L100.094 27.665L99.7666 26.72ZM98.8066 24.32L98.4687 23.3788L97.4931 23.729L97.8781 24.6914L98.8066 24.32ZM109.727 20.4L110.253 21.2503L109.389 19.4588L109.727 20.4ZM108.887 20.92L107.954 21.281L108.389 22.4042L109.413 21.7703L108.887 20.92ZM107.367 18.76L106.688 19.4948L106.696 19.502L106.704 19.509L107.367 18.76ZM101.927 18.52L102.446 19.3748L102.454 19.3696L101.927 18.52ZM100.127 20.44L99.2497 19.9591L99.2442 19.9694L100.127 20.44ZM100.167 26.24L99.2834 26.7092L99.2923 26.7258L99.3018 26.7421L100.167 26.24ZM102.087 28.2L101.572 29.0575L101.578 29.0612L101.584 29.0648L102.087 28.2ZM106.887 28.52L106.515 27.5915L106.509 27.5942L106.502 27.5969L106.887 28.52ZM108.767 27.52L109.617 26.994L109.067 26.1048L108.203 26.6938L108.767 27.52ZM110.647 30.56L111.183 31.4037L112.016 30.8737L111.497 30.034L110.647 30.56ZM107.767 31.92L108.068 32.8736L108.075 32.8712L108.083 32.8687L107.767 31.92ZM104.767 31.4C102.947 31.4 101.451 31.0513 100.241 30.3995L99.2925 32.1605C100.855 33.002 102.693 33.4 104.767 33.4V31.4ZM100.254 30.4066C99.022 29.7197 98.0917 28.7968 97.4391 27.6314L95.6941 28.6086C96.5348 30.1099 97.7378 31.2936 99.2795 32.1534L100.254 30.4066ZM97.4431 27.6387C96.7866 26.4429 96.4466 25.0652 96.4466 23.48H94.4466C94.4466 25.3615 94.8532 27.0771 95.69 28.6013L97.4431 27.6387ZM96.4466 23.48C96.4466 22.0024 96.8133 20.6933 97.5365 19.5269L95.8367 18.4731C94.9065 19.9733 94.4466 21.651 94.4466 23.48H96.4466ZM97.5336 19.5315C98.2977 18.3138 99.3085 17.3495 100.579 16.6303L99.594 14.8897C98.0379 15.7705 96.7821 16.9662 95.8395 18.4685L97.5336 19.5315ZM100.572 16.6342C101.856 15.921 103.274 15.56 104.847 15.56V13.56C102.952 13.56 101.197 13.999 99.6009 14.8858L100.572 16.6342ZM104.847 15.56C106.878 15.56 108.484 16.1461 109.741 17.2667L111.072 15.7733C109.396 14.2806 107.295 13.56 104.847 13.56V15.56ZM109.748 17.2726C111.048 18.41 111.958 20.0293 112.429 22.211L114.384 21.789C113.842 19.2774 112.752 17.2433 111.065 15.7674L109.748 17.2726ZM113.08 21.055L99.4395 25.775L100.094 27.665L113.734 22.945L113.08 21.055ZM100.695 26.3486L99.735 23.9486L97.8781 24.6914L98.8381 27.0914L100.695 26.3486ZM99.1444 25.2612L110.064 21.3412L109.389 19.4588L98.4687 23.3788L99.1444 25.2612ZM109.2 19.5497L108.36 20.0697L109.413 21.7703L110.253 21.2503L109.2 19.5497ZM109.819 20.559C109.439 19.5766 108.837 18.7254 108.029 18.011L106.704 19.509C107.283 20.0213 107.694 20.61 107.954 21.281L109.819 20.559ZM108.045 18.0252C107.121 17.172 105.907 16.8 104.527 16.8V18.8C105.546 18.8 106.226 19.068 106.688 19.4948L108.045 18.0252ZM104.527 16.8C103.391 16.8 102.34 17.0866 101.399 17.6704L102.454 19.3696C103.06 18.9934 103.742 18.8 104.527 18.8V16.8ZM101.408 17.6652C100.499 18.2168 99.7806 18.9912 99.2498 19.9592L101.003 20.9208C101.379 20.2355 101.861 19.7298 102.446 19.3748L101.408 17.6652ZM99.2442 19.9694C98.7259 20.9412 98.4866 22.0561 98.4866 23.28H100.487C100.487 22.3173 100.674 21.5388 101.009 20.9106L99.2442 19.9694ZM98.4866 23.28C98.4866 24.5374 98.742 25.6899 99.2834 26.7092L101.05 25.7708C100.684 25.0834 100.487 24.2626 100.487 23.28H98.4866ZM99.3018 26.7421C99.8645 27.7112 100.623 28.4883 101.572 29.0575L102.601 27.3425C101.95 26.9517 101.429 26.4221 101.031 25.7379L99.3018 26.7421ZM101.584 29.0648C102.573 29.6387 103.668 29.92 104.847 29.92V27.92C103.999 27.92 103.254 27.7213 102.589 27.3352L101.584 29.0648ZM104.847 29.92C105.693 29.92 106.505 29.7625 107.271 29.4431L106.502 27.5969C105.989 27.8109 105.44 27.92 104.847 27.92V29.92ZM107.258 29.4485C107.991 29.1551 108.682 28.7876 109.33 28.3462L108.203 26.6938C107.677 27.0524 107.115 27.3516 106.515 27.5915L107.258 29.4485ZM107.916 28.046L109.796 31.086L111.497 30.034L109.617 26.994L107.916 28.046ZM110.11 29.7163C109.302 30.2303 108.417 30.6492 107.45 30.9713L108.083 32.8687C109.196 32.4975 110.231 32.0097 111.183 31.4037L110.11 29.7163ZM107.465 30.9664C106.542 31.258 105.644 31.4 104.767 31.4V33.4C105.863 33.4 106.964 33.222 108.068 32.8736L107.465 30.9664ZM120.7 31.44L120.238 32.3269L120.246 32.3307L120.253 32.3344L120.7 31.44ZM117.66 28.48L116.792 28.9761L117.66 28.48ZM117.7 18.76L116.838 18.253L116.835 18.2593L116.831 18.2657L117.7 18.76ZM120.82 15.64L121.311 16.5116L121.316 16.5082L120.82 15.64ZM128.98 15.56L128.416 16.3853L128.428 16.3938L128.441 16.4019L128.98 15.56ZM131.42 17.92L132.336 18.3208L132.552 17.8282L132.26 17.3767L131.42 17.92ZM131.14 18.56L130.147 18.4404L132.056 18.9608L131.14 18.56ZM131.54 15.24V14.24H130.654L130.547 15.1204L131.54 15.24ZM135.34 15.24H136.34V14.24H135.34V15.24ZM135.34 32V33H136.34V32H135.34ZM131.22 32H130.22V33H131.22V32ZM131.22 27.8L132.136 27.3973L130.22 27.8H131.22ZM131.66 28.8L132.555 29.2472L132.765 28.8271L132.576 28.3973L131.66 28.8ZM130.98 29.72L131.713 30.4004L131.725 30.3879L131.736 30.3749L130.98 29.72ZM129.58 30.92L128.992 30.1113L128.983 30.1178L128.974 30.1246L129.58 30.92ZM127.58 32L127.917 32.9417L127.926 32.9385L127.935 32.935L127.58 32ZM131.22 25.12L132.194 25.3472L132.22 25.2351V25.12H131.22ZM131.22 21.64H132.22V21.4999L132.182 21.3653L131.22 21.64ZM130.14 19.72L129.399 20.3909L129.407 20.3999L129.415 20.4087L130.14 19.72ZM128.3 18.4L127.881 19.308L127.888 19.3109L127.894 19.3138L128.3 18.4ZM123.34 18.64L123.833 19.51L123.844 19.5039L123.855 19.4975L123.34 18.64ZM121.42 26.28L120.549 26.7703L120.554 26.7805L120.56 26.7905L121.42 26.28ZM123.42 28.32L122.898 29.1726L122.908 29.1788L122.918 29.1848L123.42 28.32ZM124.98 31.4C123.547 31.4 122.275 31.1095 121.148 30.5456L120.253 32.3344C121.685 33.0505 123.267 33.4 124.98 33.4V31.4ZM121.162 30.5531C120.06 29.9789 119.184 29.1315 118.529 27.9839L116.792 28.9761C117.63 30.4418 118.781 31.5677 120.238 32.3269L121.162 30.5531ZM118.529 27.9839C117.889 26.8645 117.54 25.433 117.54 23.64H115.54C115.54 25.687 115.938 27.4822 116.792 28.9761L118.529 27.9839ZM117.54 23.64C117.54 21.8837 117.898 20.4349 118.57 19.2543L116.831 18.2657C115.956 19.8051 115.54 21.6097 115.54 23.64H117.54ZM118.562 19.267C119.28 18.0475 120.196 17.1386 121.311 16.5116L120.33 14.7684C118.885 15.5814 117.721 16.7525 116.838 18.253L118.562 19.267ZM121.316 16.5082C122.47 15.8488 123.713 15.52 125.06 15.52V13.52C123.368 13.52 121.784 13.9378 120.324 14.7718L121.316 16.5082ZM125.06 15.52C126.519 15.52 127.612 15.8357 128.416 16.3853L129.545 14.7347C128.322 13.8976 126.801 13.52 125.06 13.52V15.52ZM128.441 16.4019C129.378 17.0026 130.082 17.6925 130.581 18.4633L132.26 17.3767C131.585 16.3342 130.663 15.4507 129.52 14.7181L128.441 16.4019ZM130.504 17.5192L130.224 18.1592L132.056 18.9608L132.336 18.3208L130.504 17.5192ZM132.133 18.6796L132.533 15.3596L130.547 15.1204L130.147 18.4404L132.133 18.6796ZM131.54 16.24H135.34V14.24H131.54V16.24ZM134.34 15.24V32H136.34V15.24H134.34ZM135.34 31H131.22V33H135.34V31ZM132.22 32V27.8H130.22V32H132.22ZM130.305 28.2027L130.745 29.2027L132.576 28.3973L132.136 27.3973L130.305 28.2027ZM130.766 28.3528C130.72 28.4449 130.566 28.6707 130.225 29.0651L131.736 30.3749C132.088 29.9693 132.387 29.5817 132.555 29.2472L130.766 28.3528ZM130.248 29.0395C129.959 29.3503 129.547 29.708 128.992 30.1113L130.168 31.7287C130.787 31.2786 131.308 30.8363 131.713 30.4004L130.248 29.0395ZM128.974 30.1246C128.503 30.4837 127.924 30.8 127.226 31.065L127.935 32.935C128.783 32.6133 129.538 32.2096 130.186 31.7154L128.974 30.1246ZM127.244 31.0583C126.628 31.2783 125.879 31.4 124.98 31.4V33.4C126.055 33.4 127.039 33.2551 127.917 32.9417L127.244 31.0583ZM126.1 30.04C127.103 30.04 128.036 29.8572 128.879 29.468L128.041 27.652C127.498 27.9028 126.858 28.04 126.1 28.04V30.04ZM128.879 29.468C129.709 29.0849 130.418 28.5381 130.994 27.8332L129.446 26.5668C129.063 27.0353 128.598 27.3951 128.041 27.652L128.879 29.468ZM130.994 27.8332C131.579 27.1186 131.976 26.2834 132.194 25.3472L130.246 24.8928C130.092 25.5566 129.822 26.1081 129.446 26.5668L130.994 27.8332ZM132.22 25.12V21.64H130.22V25.12H132.22ZM132.182 21.3653C131.927 20.4724 131.489 19.688 130.865 19.0312L129.415 20.4087C129.805 20.8186 130.087 21.3142 130.259 21.9147L132.182 21.3653ZM130.882 19.0491C130.277 18.3811 129.548 17.8604 128.706 17.4862L127.894 19.3138C128.492 19.5796 128.99 19.9389 129.399 20.3909L130.882 19.0491ZM128.719 17.492C127.88 17.1046 126.961 16.92 125.98 16.92V18.92C126.706 18.92 127.334 19.0554 127.881 19.308L128.719 17.492ZM125.98 16.92C124.845 16.92 123.786 17.2065 122.826 17.7825L123.855 19.4975C124.495 19.1135 125.196 18.92 125.98 18.92V16.92ZM122.847 17.77C121.887 18.3143 121.121 19.0841 120.556 20.0579L122.285 21.0621C122.68 20.3826 123.194 19.8723 123.833 19.51L122.847 17.77ZM120.556 20.0579C119.975 21.0579 119.7 22.1961 119.7 23.44H121.7C121.7 22.4973 121.906 21.7154 122.285 21.0621L120.556 20.0579ZM119.7 23.44C119.7 24.6407 119.979 25.7579 120.549 26.7703L122.292 25.7897C121.901 25.0954 121.7 24.3193 121.7 23.44H119.7ZM120.56 26.7905C121.148 27.7802 121.929 28.579 122.898 29.1726L123.943 27.4674C123.258 27.0477 122.706 26.4865 122.28 25.7695L120.56 26.7905ZM122.918 29.1848C123.898 29.7537 124.965 30.04 126.1 30.04V28.04C125.316 28.04 124.596 27.8463 123.922 27.4552L122.918 29.1848ZM141.652 32H140.652V33H141.652V32ZM141.652 0.92V-0.0800004H140.652V0.92H141.652ZM145.772 0.92H146.772V-0.0800004H145.772V0.92ZM145.772 32V33H146.772V32H145.772ZM149.852 20.8L150.677 20.2345L150.043 19.3103L149.197 20.0447L149.852 20.8ZM157.532 32V33H159.43L158.357 31.4345L157.532 32ZM152.732 32L151.887 32.5351L152.182 33H152.732V32ZM147.132 23.16L146.477 22.4047L145.827 22.9684L146.287 23.6951L147.132 23.16ZM144.492 26.84L143.497 26.9405L143.681 28.7619L145.114 27.6229L144.492 26.84ZM144.092 22.88L143.474 22.0943L143.042 22.4341L143.097 22.9805L144.092 22.88ZM154.252 14.88L154.91 14.1267L154.285 13.5813L153.634 14.0943L154.252 14.88ZM156.772 17.08L157.394 17.8629L158.334 17.116L157.43 16.3267L156.772 17.08ZM142.652 32V0.92H140.652V32H142.652ZM141.652 1.92H145.772V-0.0800004H141.652V1.92ZM144.772 0.92V32H146.772V0.92H144.772ZM145.772 31H141.652V33H145.772V31ZM149.027 21.3655L156.707 32.5655L158.357 31.4345L150.677 20.2345L149.027 21.3655ZM157.532 31H152.732V33H157.532V31ZM153.577 31.4649L147.977 22.6249L146.287 23.6951L151.887 32.5351L153.577 31.4649ZM147.788 23.9153L150.508 21.5553L149.197 20.0447L146.477 22.4047L147.788 23.9153ZM145.487 26.7395L145.087 22.7795L143.097 22.9805L143.497 26.9405L145.487 26.7395ZM144.711 23.6657L154.871 15.6657L153.634 14.0943L143.474 22.0943L144.711 23.6657ZM153.595 15.6333L156.115 17.8333L157.43 16.3267L154.91 14.1267L153.595 15.6333ZM156.15 16.2971L143.87 26.0571L145.114 27.6229L157.394 17.8629L156.15 16.2971ZM178.005 8.52L177.539 9.40492L178.442 9.88047L178.899 8.96721L178.005 8.52ZM174.725 7.16L175.028 6.20707L174.725 7.16ZM167.765 7.64L168.369 8.43709L168.376 8.43136L168.384 8.42549L167.765 7.64ZM167.325 12.56L168.047 11.8688V11.8688L167.325 12.56ZM169.605 14.16L169.168 15.0595V15.0595L169.605 14.16ZM172.565 15.44L172.206 16.3733L172.214 16.3766L172.223 16.3798L172.565 15.44ZM175.165 16.6L174.696 17.4831L174.712 17.4918L174.728 17.4998L175.165 16.6ZM177.525 18.2L176.846 18.9348L176.853 18.9412L176.86 18.9474L177.525 18.2ZM179.205 20.6L178.282 20.9846L178.288 21.0003L178.295 21.0158L179.205 20.6ZM178.685 28.24L177.834 27.7149L177.83 27.7215L177.826 27.7282L178.685 28.24ZM175.405 31.24L175.859 32.1311L175.865 32.1278L175.405 31.24ZM166.645 31.92L166.397 32.8888L166.41 32.8921L166.423 32.8951L166.645 31.92ZM163.365 30.8L162.937 31.7037L162.951 31.7104L162.965 31.7167L163.365 30.8ZM160.605 29.24L159.739 28.7394L159.273 29.5456L160.044 30.0679L160.605 29.24ZM162.525 25.92L163.103 25.104L162.208 24.4702L161.659 25.4194L162.525 25.92ZM164.725 27.24L164.266 28.1286L164.278 28.1345L164.289 28.1402L164.725 27.24ZM167.285 28.2L167.022 29.1648L167.029 29.1667L167.285 28.2ZM172.445 28.12L172.77 29.0657L172.783 29.0612L172.796 29.0563L172.445 28.12ZM174.565 26.68L175.317 27.3385L175.324 27.3309L175.33 27.3232L174.565 26.68ZM174.645 21.8L173.845 22.4L173.859 22.4188L173.874 22.4369L174.645 21.8ZM172.685 20.16L172.192 21.0301L172.204 21.0368L172.685 20.16ZM170.085 18.96L169.728 19.8941L169.737 19.8974L170.085 18.96ZM167.325 17.8L167.74 16.8905L167.325 17.8ZM164.725 16.28L164.116 17.0736L164.125 17.0801L164.133 17.0864L164.725 16.28ZM162.765 14.04L161.881 14.5079L161.889 14.5236L161.898 14.539L162.765 14.04ZM163.125 6.68L162.281 6.14311L162.278 6.14823L163.125 6.68ZM166.205 3.92L166.659 4.81076V4.81076L166.205 3.92ZM170.725 2.8V1.8H170.701L170.678 1.8011L170.725 2.8ZM175.805 3.52L175.488 4.46868L175.805 3.52ZM179.645 5.24L180.539 5.68721L180.955 4.85603L180.156 4.38071L179.645 5.24ZM178.47 7.63508C177.401 7.07238 176.253 6.59692 175.028 6.20707L174.421 8.11292C175.543 8.46974 176.581 8.90095 177.539 9.40492L178.47 7.63508ZM175.028 6.20707C173.769 5.80642 172.533 5.6 171.325 5.6V7.6C172.303 7.6 173.334 7.7669 174.421 8.11292L175.028 6.20707ZM171.325 5.6C169.682 5.6 168.253 5.98215 167.146 6.85451L168.384 8.42549C169.036 7.91118 169.981 7.6 171.325 7.6V5.6ZM167.161 6.84291C166.014 7.71201 165.445 8.93647 165.445 10.4H167.445C167.445 9.51686 167.756 8.90132 168.369 8.43709L167.161 6.84291ZM165.445 10.4C165.445 11.4917 165.843 12.4573 166.602 13.2512L168.047 11.8688C167.633 11.436 167.445 10.9616 167.445 10.4H165.445ZM166.602 13.2512C167.287 13.9671 168.151 14.5654 169.168 15.0595L170.042 13.2605C169.192 12.8479 168.536 12.3795 168.047 11.8688L166.602 13.2512ZM169.168 15.0595C170.128 15.5261 171.141 15.9639 172.206 16.3733L172.924 14.5067C171.908 14.1161 170.948 13.7006 170.042 13.2605L169.168 15.0595ZM172.223 16.3798C173.058 16.6834 173.882 17.0509 174.696 17.4831L175.634 15.7169C174.741 15.2424 173.832 14.8366 172.906 14.5002L172.223 16.3798ZM174.728 17.4998C175.523 17.8852 176.228 18.3638 176.846 18.9348L178.203 17.4652C177.435 16.7562 176.566 16.1681 175.601 15.7002L174.728 17.4998ZM176.86 18.9474C177.459 19.4797 177.935 20.1522 178.282 20.9846L180.128 20.2154C179.675 19.1278 179.03 18.2003 178.189 17.4526L176.86 18.9474ZM178.295 21.0158C178.646 21.7835 178.845 22.779 178.845 24.04H180.845C180.845 22.581 180.617 21.2832 180.114 20.1842L178.295 21.0158ZM178.845 24.04C178.845 25.411 178.505 26.6275 177.834 27.7149L179.536 28.7651C180.411 27.3458 180.845 25.7624 180.845 24.04H178.845ZM177.826 27.7282C177.185 28.804 176.238 29.6814 174.944 30.3522L175.865 32.1278C177.451 31.3052 178.691 30.1826 179.544 28.7518L177.826 27.7282ZM174.951 30.349C173.712 30.9802 172.156 31.32 170.245 31.32V33.32C172.387 33.32 174.271 32.9398 175.859 32.131L174.951 30.349ZM170.245 31.32C169.091 31.32 167.966 31.1947 166.866 30.9449L166.423 32.8951C167.671 33.1786 168.945 33.32 170.245 33.32V31.32ZM166.893 30.9512C165.796 30.6706 164.753 30.3143 163.764 29.8833L162.965 31.7167C164.056 32.1923 165.201 32.5828 166.397 32.8888L166.893 30.9512ZM163.793 29.8963C162.82 29.4355 161.945 28.9402 161.166 28.4121L160.044 30.0679C160.918 30.6598 161.883 31.2045 162.937 31.7037L163.793 29.8963ZM161.47 29.7406L163.39 26.4206L161.659 25.4194L159.739 28.7394L161.47 29.7406ZM161.947 26.736C162.631 27.2207 163.405 27.6844 164.266 28.1286L165.183 26.3514C164.391 25.9423 163.698 25.5259 163.103 25.104L161.947 26.736ZM164.289 28.1402C165.171 28.5668 166.082 28.9085 167.022 29.1648L167.548 27.2352C166.728 27.0115 165.932 26.7132 165.16 26.3398L164.289 28.1402ZM167.029 29.1667C168.005 29.4251 168.945 29.56 169.845 29.56V27.56C169.144 27.56 168.378 27.4549 167.541 27.2333L167.029 29.1667ZM169.845 29.56C170.838 29.56 171.815 29.3941 172.77 29.0657L172.12 27.1743C171.368 27.4326 170.611 27.56 169.845 27.56V29.56ZM172.796 29.0563C173.792 28.6826 174.641 28.1117 175.317 27.3385L173.812 26.0215C173.369 26.5283 172.804 26.9174 172.094 27.1837L172.796 29.0563ZM175.33 27.3232C176.074 26.4384 176.405 25.327 176.405 24.08H174.405C174.405 24.9663 174.176 25.5883 173.799 26.0368L175.33 27.3232ZM176.405 24.08C176.405 22.9752 176.091 21.9805 175.416 21.1631L173.874 22.4369C174.212 22.8462 174.405 23.3715 174.405 24.08H176.405ZM175.445 21.2C174.865 20.4275 174.095 19.7929 173.166 19.2832L172.204 21.0368C172.928 21.4337 173.464 21.8925 173.845 22.4L175.445 21.2ZM173.178 19.29C172.328 18.8083 171.412 18.3863 170.433 18.0226L169.737 19.8974C170.624 20.227 171.442 20.605 172.192 21.03L173.178 19.29ZM170.442 18.0259C169.556 17.6873 168.656 17.3089 167.74 16.8905L166.909 18.7095C167.86 19.1445 168.8 19.5394 169.728 19.8941L170.442 18.0259ZM167.74 16.8905C166.867 16.4912 166.059 16.0187 165.316 15.4736L164.133 17.0864C164.99 17.7147 165.916 18.2555 166.909 18.7095L167.74 16.8905ZM165.333 15.4864C164.639 14.9539 164.073 14.3076 163.631 13.541L161.898 14.539C162.47 15.5324 163.211 16.3794 164.116 17.0736L165.333 15.4864ZM163.648 13.5721C163.263 12.8437 163.045 11.9071 163.045 10.72H161.045C161.045 12.1462 161.307 13.423 161.881 14.5079L163.648 13.5721ZM163.045 10.72C163.045 9.33405 163.365 8.17738 163.972 7.21177L162.278 6.14823C161.444 7.47595 161.045 9.01262 161.045 10.72H163.045ZM163.968 7.21687C164.614 6.20248 165.502 5.40093 166.659 4.81076L165.75 3.02924C164.294 3.7724 163.129 4.81085 162.281 6.14312L163.968 7.21687ZM166.659 4.81076C167.82 4.2185 169.184 3.87333 170.772 3.7989L170.678 1.8011C168.852 1.88666 167.203 2.28817 165.75 3.02924L166.659 4.81076ZM170.725 3.8C172.593 3.8 174.175 4.03072 175.488 4.46868L176.121 2.57132C174.555 2.04928 172.75 1.8 170.725 1.8V3.8ZM175.488 4.46868C176.871 4.9296 178.084 5.47476 179.133 6.09929L180.156 4.38071C178.965 3.6719 177.618 3.0704 176.121 2.57132L175.488 4.46868ZM178.75 4.79279L177.11 8.07279L178.899 8.96721L180.539 5.68721L178.75 4.79279ZM191.766 31.6L191.319 32.4944L191.327 32.4987L191.336 32.5029L191.766 31.6ZM189.086 29.36L188.104 29.17L188.023 29.5917L188.272 29.9412L189.086 29.36ZM189.326 28.12H190.326L188.344 27.93L189.326 28.12ZM189.326 40.04V41.04H190.326V40.04H189.326ZM185.246 40.04H184.246V41.04H185.246V40.04ZM185.246 14.96V13.96H184.246V14.96H185.246ZM188.806 14.96L189.797 14.824L189.678 13.96H188.806V14.96ZM189.366 19.04L188.431 19.3947L190.357 18.904L189.366 19.04ZM188.926 17.88L188.168 17.2275L187.78 17.6783L187.991 18.2347L188.926 17.88ZM191.966 15.48L191.503 14.5934L191.495 14.5976L191.966 15.48ZM200.286 15.64L199.774 16.4991V16.4991L200.286 15.64ZM203.126 28.32L202.268 27.8055L202.265 27.8107L203.126 28.32ZM199.926 31.36L200.38 32.2509L200.387 32.2474L200.394 32.2438L199.926 31.36ZM197.286 28.44L196.807 27.562L196.796 27.5684L197.286 28.44ZM199.366 26.48L198.518 25.95L198.513 25.9574L199.366 26.48ZM199.406 20.76L198.534 21.2503L198.544 21.2666L198.553 21.2826L199.406 20.76ZM197.446 18.76L196.931 19.6175L196.938 19.6212L196.944 19.6248L197.446 18.76ZM192.286 18.56L192.692 19.4738L192.706 19.4676L192.72 19.461L192.286 18.56ZM190.446 19.92L189.689 19.2664V19.2664L190.446 19.92ZM189.366 22.04L188.398 21.7901L188.366 21.913V22.04H189.366ZM189.366 25.12H188.366V25.2224L188.387 25.3226L189.366 25.12ZM190.326 27.2L191.113 26.5837V26.5837L190.326 27.2ZM192.126 28.64L192.56 27.739L192.126 28.64ZM195.286 31.4C194.21 31.4 193.183 31.1673 192.196 30.6971L191.336 32.5029C192.589 33.0994 193.909 33.4 195.286 33.4V31.4ZM192.213 30.7056C191.225 30.2117 190.463 29.5675 189.9 28.7788L188.272 29.9412C189.042 31.0192 190.067 31.8683 191.319 32.4944L192.213 30.7056ZM190.068 29.55L190.308 28.31L188.344 27.93L188.104 29.17L190.068 29.55ZM188.326 28.12V40.04H190.326V28.12H188.326ZM189.326 39.04H185.246V41.04H189.326V39.04ZM186.246 40.04V14.96H184.246V40.04H186.246ZM185.246 15.96H188.806V13.96H185.246V15.96ZM187.815 15.096L188.375 19.176L190.357 18.904L189.797 14.824L187.815 15.096ZM190.301 18.6853L189.861 17.5253L187.991 18.2347L188.431 19.3947L190.301 18.6853ZM189.684 18.5325C190.424 17.6729 191.338 16.9485 192.437 16.3624L191.495 14.5976C190.194 15.2915 189.081 16.1671 188.168 17.2275L189.684 18.5325ZM192.428 16.3666C193.501 15.8069 194.701 15.52 196.046 15.52V13.52C194.405 13.52 192.884 13.8731 191.503 14.5934L192.428 16.3666ZM196.046 15.52C197.454 15.52 198.688 15.8519 199.774 16.4991L200.798 14.7809C199.378 13.9348 197.785 13.52 196.046 13.52V15.52ZM199.774 16.4991C200.861 17.1467 201.723 18.0607 202.362 19.2679L204.13 18.3321C203.329 16.8193 202.217 15.6266 200.798 14.7809L199.774 16.4991ZM202.362 19.2679C202.992 20.4581 203.326 21.8913 203.326 23.6H205.326C205.326 21.6287 204.94 19.8619 204.13 18.3321L202.362 19.2679ZM203.326 23.6C203.326 25.2626 202.961 26.6518 202.268 27.8055L203.983 28.8345C204.891 27.3215 205.326 25.5641 205.326 23.6H203.326ZM202.265 27.8107C201.587 28.9565 200.657 29.8412 199.458 30.4762L200.394 32.2438C201.914 31.4388 203.118 30.2969 203.987 28.8293L202.265 27.8107ZM199.472 30.4691C198.27 31.0815 196.883 31.4 195.286 31.4V33.4C197.156 33.4 198.861 33.0251 200.38 32.2509L199.472 30.4691ZM194.486 30.16C195.665 30.16 196.768 29.8788 197.776 29.3116L196.796 27.5684C196.097 27.9612 195.334 28.16 194.486 28.16V30.16ZM197.765 29.3179C198.793 28.7571 199.617 27.9835 200.219 27.0026L198.513 25.9574C198.101 26.6298 197.539 27.1629 196.807 27.5621L197.765 29.3179ZM200.214 27.01C200.85 25.9922 201.166 24.8608 201.166 23.64H199.166C199.166 24.4992 198.949 25.2611 198.518 25.95L200.214 27.01ZM201.166 23.64C201.166 22.3864 200.873 21.2407 200.259 20.2374L198.553 21.2826C198.952 21.9326 199.166 22.707 199.166 23.64H201.166ZM200.278 20.2697C199.712 19.2648 198.933 18.4671 197.948 17.8952L196.944 19.6248C197.612 20.0129 198.14 20.5486 198.534 21.2503L200.278 20.2697ZM197.96 17.9025C196.996 17.3238 195.923 17.04 194.766 17.04V19.04C195.582 19.04 196.296 19.2362 196.931 19.6175L197.96 17.9025ZM194.766 17.04C193.708 17.04 192.728 17.2371 191.852 17.659L192.72 19.461C193.283 19.1896 193.958 19.04 194.766 19.04V17.04ZM191.88 17.6462C191.027 18.025 190.294 18.5663 189.689 19.2664L191.203 20.5736C191.612 20.1003 192.104 19.735 192.692 19.4738L191.88 17.6462ZM189.689 19.2664C189.072 19.981 188.646 20.8297 188.398 21.7901L190.334 22.2899C190.513 21.5969 190.807 21.0324 191.203 20.5736L189.689 19.2664ZM188.366 22.04V25.12H190.366V22.04H188.366ZM188.387 25.3226C188.577 26.2446 188.962 27.0799 189.538 27.8163L191.113 26.5837C190.73 26.0934 190.474 25.5421 190.345 24.9174L188.387 25.3226ZM189.538 27.8163C190.115 28.5536 190.838 29.1296 191.692 29.541L192.56 27.739C191.974 27.4571 191.496 27.0731 191.113 26.5837L189.538 27.8163ZM191.692 29.541C192.557 29.9572 193.493 30.16 194.486 30.16V28.16C193.772 28.16 193.135 28.0161 192.56 27.739L191.692 29.541ZM209.191 32H208.191V33H209.191V32ZM209.191 0.92V-0.0800004H208.191V0.92H209.191ZM213.191 0.92H214.191V-0.0800004H213.191V0.92ZM213.191 19.04L212.193 19.0987L214.191 19.04H213.191ZM213.151 18.36L212.261 17.9041L212.137 18.1467L212.153 18.4187L213.151 18.36ZM215.711 15.64L216.243 16.4869L215.711 15.64ZM223.711 15.96L223.034 16.6956L223.043 16.7042L223.711 15.96ZM225.311 19.6H226.311V19.5911L226.311 19.5821L225.311 19.6ZM225.311 32V33H226.311V32H225.311ZM221.191 32H220.191V33H221.191V32ZM221.191 21.04H222.191V21.0244L222.191 21.0088L221.191 21.04ZM220.431 18.96L219.672 19.6108L219.68 19.62L219.688 19.629L220.431 18.96ZM218.191 18.08L218.218 17.0803L218.204 17.08H218.191V18.08ZM215.711 18.92L216.292 19.7337L216.302 19.727L216.311 19.72L215.711 18.92ZM213.951 21.16L214.861 21.5758L214.865 21.5661L213.951 21.16ZM213.311 32V33H214.311V32H213.311ZM210.191 32V0.92H208.191V32H210.191ZM209.191 1.92H213.191V-0.0800004H209.191V1.92ZM212.191 0.92V19.04H214.191V0.92H212.191ZM214.19 18.9813L214.15 18.3013L212.153 18.4187L212.193 19.0987L214.19 18.9813ZM214.041 18.8159C214.511 17.8988 215.233 17.1212 216.243 16.4869L215.179 14.7931C213.896 15.5988 212.911 16.6345 212.261 17.9041L214.041 18.8159ZM216.243 16.4869C217.203 15.8839 218.385 15.56 219.831 15.56V13.56C218.078 13.56 216.512 13.9561 215.179 14.7931L216.243 16.4869ZM219.831 15.56C221.192 15.56 222.231 15.9565 223.034 16.6955L224.389 15.2245C223.164 14.0968 221.617 13.56 219.831 13.56V15.56ZM223.043 16.7042C223.861 17.4382 224.289 18.3808 224.311 19.6179L226.311 19.5821C226.28 17.8325 225.641 16.3485 224.379 15.2158L223.043 16.7042ZM224.311 19.6V32H226.311V19.6H224.311ZM225.311 31H221.191V33H225.311V31ZM222.191 32V21.04H220.191V32H222.191ZM222.191 21.0088C222.158 19.9662 221.841 19.032 221.175 18.291L219.688 19.629C219.981 19.9547 220.171 20.4071 220.192 21.0712L222.191 21.0088ZM221.191 18.3092C220.465 17.4633 219.404 17.1116 218.218 17.0803L218.165 19.0797C219.006 19.1018 219.437 19.3367 219.672 19.6108L221.191 18.3092ZM218.191 17.08C217.061 17.08 216.026 17.4343 215.111 18.12L216.311 19.72C216.89 19.2857 217.508 19.08 218.191 19.08V17.08ZM215.13 18.1063C214.218 18.7576 213.526 19.6548 213.037 20.7539L214.865 21.5661C215.23 20.7452 215.711 20.149 216.292 19.7337L215.13 18.1063ZM213.042 20.7442C212.546 21.8283 212.311 23.0406 212.311 24.36H214.311C214.311 23.2794 214.503 22.3583 214.861 21.5758L213.042 20.7442ZM212.311 24.36V32H214.311V24.36H212.311ZM213.311 31H209.191V33H213.311V31ZM234.493 31.28L234.006 32.1534L234.013 32.157L234.019 32.1605L234.493 31.28ZM231.293 28.12L230.417 28.6013L230.421 28.6086L231.293 28.12ZM231.413 19L230.566 18.4685L230.563 18.4731L231.413 19ZM234.813 15.76L234.327 14.8858L234.321 14.8897L234.813 15.76ZM245.133 16.52L244.468 17.2667L244.475 17.2726L245.133 16.52ZM248.133 22L248.46 22.945L249.298 22.6552L249.111 21.789L248.133 22ZM234.493 26.72L233.565 27.0914L233.919 27.9769L234.82 27.665L234.493 26.72ZM233.533 24.32L233.195 23.3788L232.22 23.729L232.605 24.6914L233.533 24.32ZM244.453 20.4L244.979 21.2503L244.115 19.4588L244.453 20.4ZM243.613 20.92L242.681 21.281L243.115 22.4042L244.139 21.7703L243.613 20.92ZM242.093 18.76L241.415 19.4948L241.423 19.502L241.431 19.509L242.093 18.76ZM236.653 18.52L237.172 19.3748L237.18 19.3696L236.653 18.52ZM234.853 20.44L233.976 19.9591L233.971 19.9694L234.853 20.44ZM234.893 26.24L234.01 26.7092L234.019 26.7258L234.028 26.7421L234.893 26.24ZM236.813 28.2L236.299 29.0575L236.305 29.0612L236.311 29.0648L236.813 28.2ZM241.613 28.52L241.242 27.5915L241.235 27.5942L241.229 27.5969L241.613 28.52ZM243.493 27.52L244.344 26.994L243.794 26.1048L242.93 26.6938L243.493 27.52ZM245.373 30.56L245.91 31.4037L246.743 30.8737L246.224 30.034L245.373 30.56ZM242.493 31.92L242.794 32.8736L242.802 32.8712L242.809 32.8687L242.493 31.92ZM239.493 31.4C237.673 31.4 236.178 31.0513 234.967 30.3995L234.019 32.1605C235.582 33.002 237.419 33.4 239.493 33.4V31.4ZM234.98 30.4066C233.749 29.7197 232.818 28.7968 232.166 27.6314L230.421 28.6086C231.261 30.1099 232.464 31.2936 234.006 32.1534L234.98 30.4066ZM232.17 27.6387C231.513 26.4429 231.173 25.0652 231.173 23.48H229.173C229.173 25.3615 229.58 27.0771 230.417 28.6013L232.17 27.6387ZM231.173 23.48C231.173 22.0024 231.54 20.6933 232.263 19.5269L230.563 18.4731C229.633 19.9733 229.173 21.651 229.173 23.48H231.173ZM232.26 19.5315C233.024 18.3138 234.035 17.3495 235.306 16.6303L234.321 14.8897C232.764 15.7705 231.509 16.9662 230.566 18.4685L232.26 19.5315ZM235.299 16.6342C236.582 15.921 238.001 15.56 239.573 15.56V13.56C237.679 13.56 235.924 13.999 234.327 14.8858L235.299 16.6342ZM239.573 15.56C241.605 15.56 243.21 16.1461 244.468 17.2667L245.798 15.7733C244.123 14.2806 242.022 13.56 239.573 13.56V15.56ZM244.475 17.2726C245.775 18.41 246.685 20.0293 247.156 22.211L249.111 21.789C248.568 19.2774 247.478 17.2433 245.792 15.7674L244.475 17.2726ZM247.806 21.055L234.166 25.775L234.82 27.665L248.46 22.945L247.806 21.055ZM235.422 26.3486L234.462 23.9486L232.605 24.6914L233.565 27.0914L235.422 26.3486ZM233.871 25.2612L244.791 21.3412L244.115 19.4588L233.195 23.3788L233.871 25.2612ZM243.927 19.5497L243.087 20.0697L244.139 21.7703L244.979 21.2503L243.927 19.5497ZM244.546 20.559C244.165 19.5766 243.563 18.7254 242.756 18.011L241.431 19.509C242.01 20.0213 242.421 20.61 242.681 21.281L244.546 20.559ZM242.771 18.0252C241.847 17.172 240.634 16.8 239.253 16.8V18.8C240.273 18.8 240.952 19.068 241.415 19.4948L242.771 18.0252ZM239.253 16.8C238.117 16.8 237.066 17.0866 236.126 17.6704L237.18 19.3696C237.787 18.9934 238.469 18.8 239.253 18.8V16.8ZM236.134 17.6652C235.226 18.2168 234.507 18.9912 233.976 19.9592L235.73 20.9208C236.106 20.2355 236.587 19.7298 237.172 19.3748L236.134 17.6652ZM233.971 19.9694C233.452 20.9412 233.213 22.0561 233.213 23.28H235.213C235.213 22.3173 235.4 21.5388 235.735 20.9106L233.971 19.9694ZM233.213 23.28C233.213 24.5374 233.469 25.6899 234.01 26.7092L235.776 25.7708C235.411 25.0834 235.213 24.2626 235.213 23.28H233.213ZM234.028 26.7421C234.591 27.7112 235.35 28.4883 236.299 29.0575L237.328 27.3425C236.676 26.9517 236.155 26.4221 235.758 25.7379L234.028 26.7421ZM236.311 29.0648C237.299 29.6387 238.394 29.92 239.573 29.92V27.92C238.725 27.92 237.98 27.7213 237.315 27.3352L236.311 29.0648ZM239.573 29.92C240.42 29.92 241.231 29.7625 241.998 29.4431L241.229 27.5969C240.715 27.8109 240.166 27.92 239.573 27.92V29.92ZM241.985 29.4485C242.718 29.1551 243.409 28.7876 244.056 28.3462L242.93 26.6938C242.404 27.0524 241.842 27.3516 241.242 27.5915L241.985 29.4485ZM242.643 28.046L244.523 31.086L246.224 30.034L244.344 26.994L242.643 28.046ZM244.836 29.7163C244.029 30.2303 243.143 30.6492 242.177 30.9713L242.809 32.8687C243.923 32.4975 244.958 32.0097 245.91 31.4037L244.836 29.7163ZM242.192 30.9664C241.269 31.258 240.37 31.4 239.493 31.4V33.4C240.59 33.4 241.691 33.222 242.794 32.8736L242.192 30.9664ZM256.387 15.24L257.383 15.157L257.307 14.24H256.387V15.24ZM256.787 20.04L255.832 20.3383L257.783 19.957L256.787 20.04ZM256.587 19.4L255.674 18.9916L255.52 19.3371L255.632 19.6983L256.587 19.4ZM258.507 16.8L257.85 16.0459V16.0459L258.507 16.8ZM261.067 15.16L261.457 16.0806L261.464 16.0778L261.471 16.0749L261.067 15.16ZM263.347 14.56L264.346 14.609L264.397 13.56H263.347V14.56ZM263.147 18.64L263.085 19.6381L264.096 19.7013L264.146 18.689L263.147 18.64ZM259.787 19.36L259.283 18.4962L259.272 18.5025L259.787 19.36ZM257.587 21.6L256.719 21.1039L257.587 21.6ZM256.787 32V33H257.787V32H256.787ZM252.707 32H251.707V33H252.707V32ZM252.707 15.24V14.24H251.707V15.24H252.707ZM255.39 15.323L255.79 20.123L257.783 19.957L257.383 15.157L255.39 15.323ZM257.741 19.7417L257.541 19.1017L255.632 19.6983L255.832 20.3383L257.741 19.7417ZM257.5 19.8084C257.895 18.9258 258.448 18.1775 259.164 17.5541L257.85 16.0459C256.913 16.8625 256.186 17.8476 255.674 18.9916L257.5 19.8084ZM259.164 17.5541C259.922 16.8933 260.687 16.4072 261.457 16.0806L260.676 14.2394C259.686 14.6594 258.745 15.2667 257.85 16.0459L259.164 17.5541ZM261.471 16.0749C262.319 15.7006 262.932 15.56 263.347 15.56V13.56C262.535 13.56 261.628 13.8194 260.663 14.2451L261.471 16.0749ZM262.348 14.511L262.148 18.591L264.146 18.689L264.346 14.609L262.348 14.511ZM263.209 17.6419C261.763 17.5515 260.439 17.8216 259.283 18.4962L260.291 20.2238C261.054 19.7784 261.971 19.5685 263.085 19.6381L263.209 17.6419ZM259.272 18.5025C258.194 19.1495 257.338 20.0198 256.719 21.1039L258.455 22.0961C258.902 21.3135 259.513 20.6905 260.301 20.2175L259.272 18.5025ZM256.719 21.1039C256.1 22.1871 255.787 23.3579 255.787 24.6H257.787C257.787 23.7088 258.007 22.8796 258.455 22.0961L256.719 21.1039ZM255.787 24.6V32H257.787V24.6H255.787ZM256.787 31H252.707V33H256.787V31ZM253.707 32V15.24H251.707V32H253.707ZM252.707 16.24H256.387V14.24H252.707V16.24ZM270.196 31.28L269.709 32.1534L269.716 32.157L269.722 32.1605L270.196 31.28ZM266.996 28.12L266.12 28.6013L266.124 28.6086L266.996 28.12ZM267.116 19L266.269 18.4685L266.266 18.4731L267.116 19ZM270.516 15.76L270.031 14.8858L270.024 14.8897L270.516 15.76ZM280.836 16.52L280.171 17.2667L280.178 17.2726L280.836 16.52ZM283.836 22L284.163 22.945L285.001 22.6552L284.814 21.789L283.836 22ZM270.196 26.72L269.268 27.0914L269.622 27.9769L270.523 27.665L270.196 26.72ZM269.236 24.32L268.898 23.3788L267.923 23.729L268.308 24.6914L269.236 24.32ZM280.156 20.4L280.683 21.2503L279.818 19.4588L280.156 20.4ZM279.316 20.92L278.384 21.281L278.818 22.4042L279.843 21.7703L279.316 20.92ZM277.796 18.76L277.118 19.4948L277.126 19.502L277.134 19.509L277.796 18.76ZM272.356 18.52L272.875 19.3748L272.884 19.3696L272.356 18.52ZM270.556 20.44L269.679 19.9591L269.674 19.9694L270.556 20.44ZM270.596 26.24L269.713 26.7092L269.722 26.7258L269.731 26.7421L270.596 26.24ZM272.516 28.2L272.002 29.0575L272.008 29.0612L272.014 29.0648L272.516 28.2ZM277.316 28.52L276.945 27.5915L276.938 27.5942L276.932 27.5969L277.316 28.52ZM279.196 27.52L280.047 26.994L279.497 26.1048L278.633 26.6938L279.196 27.52ZM281.076 30.56L281.613 31.4037L282.446 30.8737L281.927 30.034L281.076 30.56ZM278.196 31.92L278.497 32.8736L278.505 32.8712L278.512 32.8687L278.196 31.92ZM275.196 31.4C273.377 31.4 271.881 31.0513 270.67 30.3995L269.722 32.1605C271.285 33.002 273.123 33.4 275.196 33.4V31.4ZM270.683 30.4066C269.452 29.7197 268.521 28.7968 267.869 27.6314L266.124 28.6086C266.964 30.1099 268.168 31.2936 269.709 32.1534L270.683 30.4066ZM267.873 27.6387C267.216 26.4429 266.876 25.0652 266.876 23.48H264.876C264.876 25.3615 265.283 27.0771 266.12 28.6013L267.873 27.6387ZM266.876 23.48C266.876 22.0024 267.243 20.6933 267.966 19.5269L266.266 18.4731C265.336 19.9733 264.876 21.651 264.876 23.48H266.876ZM267.963 19.5315C268.727 18.3138 269.738 17.3495 271.009 16.6303L270.024 14.8897C268.468 15.7705 267.212 16.9662 266.269 18.4685L267.963 19.5315ZM271.002 16.6342C272.285 15.921 273.704 15.56 275.276 15.56V13.56C273.382 13.56 271.627 13.999 270.031 14.8858L271.002 16.6342ZM275.276 15.56C277.308 15.56 278.913 16.1461 280.171 17.2667L281.501 15.7733C279.826 14.2806 277.725 13.56 275.276 13.56V15.56ZM280.178 17.2726C281.478 18.41 282.388 20.0293 282.859 22.211L284.814 21.789C284.271 19.2774 283.181 17.2433 281.495 15.7674L280.178 17.2726ZM283.509 21.055L269.869 25.775L270.523 27.665L284.163 22.945L283.509 21.055ZM271.125 26.3486L270.165 23.9486L268.308 24.6914L269.268 27.0914L271.125 26.3486ZM269.574 25.2612L280.494 21.3412L279.818 19.4588L268.898 23.3788L269.574 25.2612ZM279.63 19.5497L278.79 20.0697L279.843 21.7703L280.683 21.2503L279.63 19.5497ZM280.249 20.559C279.869 19.5766 279.266 18.7254 278.459 18.011L277.134 19.509C277.713 20.0213 278.124 20.61 278.384 21.281L280.249 20.559ZM278.475 18.0252C277.55 17.172 276.337 16.8 274.956 16.8V18.8C275.976 18.8 276.656 19.068 277.118 19.4948L278.475 18.0252ZM274.956 16.8C273.821 16.8 272.769 17.0866 271.829 17.6704L272.884 19.3696C273.49 18.9934 274.172 18.8 274.956 18.8V16.8ZM271.837 17.6652C270.929 18.2168 270.21 18.9912 269.679 19.9592L271.433 20.9208C271.809 20.2355 272.29 19.7298 272.875 19.3748L271.837 17.6652ZM269.674 19.9694C269.156 20.9412 268.916 22.0561 268.916 23.28H270.916C270.916 22.3173 271.104 21.5388 271.439 20.9106L269.674 19.9694ZM268.916 23.28C268.916 24.5374 269.172 25.6899 269.713 26.7092L271.479 25.7708C271.114 25.0834 270.916 24.2626 270.916 23.28H268.916ZM269.731 26.7421C270.294 27.7112 271.053 28.4883 272.002 29.0575L273.031 27.3425C272.379 26.9517 271.858 26.4221 271.461 25.7379L269.731 26.7421ZM272.014 29.0648C273.003 29.6387 274.098 29.92 275.276 29.92V27.92C274.428 27.92 273.683 27.7213 273.018 27.3352L272.014 29.0648ZM275.276 29.92C276.123 29.92 276.934 29.7625 277.701 29.4431L276.932 27.5969C276.418 27.8109 275.869 27.92 275.276 27.92V29.92ZM277.688 29.4485C278.421 29.1551 279.112 28.7876 279.76 28.3462L278.633 26.6938C278.107 27.0524 277.545 27.3516 276.945 27.5915L277.688 29.4485ZM278.346 28.046L280.226 31.086L281.927 30.034L280.047 26.994L278.346 28.046ZM280.539 29.7163C279.732 30.2303 278.846 30.6492 277.88 30.9713L278.512 32.8687C279.626 32.4975 280.661 32.0097 281.613 31.4037L280.539 29.7163ZM277.895 30.9664C276.972 31.258 276.073 31.4 275.196 31.4V33.4C276.293 33.4 277.394 33.222 278.497 32.8736L277.895 30.9664Z" fill="#FF7562" mask="url(#path-4-outside-1_69_377)"/>
</svg>
