<svg width="22" height="16" viewBox="0 0 22 16" fill="none" xmlns="http://www.w3.org/2000/svg">
<path d="M4.63248 14.9978C4.26775 14.9984 3.90456 14.9505 3.55248 14.8553C2.49566 14.5539 1.59905 13.8503 1.05503 12.8955C0.511 11.9406 0.362892 10.8106 0.642477 9.74777L2.38998 3.11777C2.52787 2.58391 2.77064 2.08284 3.10414 1.64376C3.43764 1.20467 3.8552 0.836355 4.33248 0.560272C4.7987 0.290234 5.31387 0.115391 5.84814 0.0458708C6.38242 -0.0236492 6.92518 0.013536 7.44498 0.155272C7.9962 0.307008 8.51002 0.57127 8.95405 0.931406C9.39809 1.29154 9.76273 1.73974 10.025 2.24777H11.975C12.2345 1.73614 12.598 1.28437 13.0423 0.921446C13.4866 0.55852 14.0018 0.292442 14.555 0.140272C15.0748 -0.0014643 15.6175 -0.0386489 16.1518 0.0308712C16.6861 0.100391 17.2013 0.275234 17.6675 0.545272C18.1445 0.821683 18.5619 1.1901 18.8953 1.62914C19.2288 2.06817 19.4717 2.56908 19.61 3.10277L21.3575 9.74777C21.6412 10.8137 21.4943 11.9484 20.9484 12.9069C20.4025 13.8653 19.5015 14.5706 18.44 14.8703C17.9202 15.012 17.3774 15.0492 16.8431 14.9797C16.3089 14.9102 15.7937 14.7353 15.3275 14.4653C14.8502 14.1892 14.4326 13.8209 14.0991 13.3818C13.7656 12.9427 13.5229 12.4416 13.385 11.9078L13.25 11.2478H8.74998L8.57748 11.8928C8.43958 12.4266 8.19681 12.9277 7.86331 13.3668C7.52981 13.8059 7.11226 14.1742 6.63498 14.4503C6.02559 14.8017 5.33593 14.9903 4.63248 14.9978ZM6.37248 1.49777C5.91988 1.49931 5.47542 1.61818 5.08248 1.84277C4.777 2.02105 4.50976 2.25794 4.2961 2.53981C4.08245 2.82168 3.92659 3.14299 3.83748 3.48527L2.08998 10.1153C1.90712 10.7983 1.99952 11.5259 2.34732 12.1415C2.69511 12.7572 3.27056 13.2118 3.94998 13.4078C4.27811 13.4973 4.62073 13.5208 4.95801 13.4771C5.2953 13.4333 5.62056 13.3231 5.91498 13.1528C6.22072 12.9748 6.48816 12.738 6.70185 12.4561C6.91554 12.1742 7.07125 11.8527 7.15998 11.5103L7.62498 9.74777H14.375L14.8325 11.5103C15.014 12.2009 15.4616 12.7914 16.0775 13.1528C16.3733 13.3229 16.6999 13.433 17.0383 13.4767C17.3768 13.5205 17.7206 13.4971 18.05 13.4078C18.7302 13.2137 19.3064 12.7589 19.6532 12.1424C20.0001 11.5259 20.0897 10.7974 19.9025 10.1153L18.155 3.48527C18.0687 3.14279 17.9148 2.82104 17.7022 2.53896C17.4897 2.25687 17.2229 2.02017 16.9175 1.84277C16.6216 1.67265 16.2951 1.56255 15.9566 1.5188C15.6182 1.47504 15.2744 1.49848 14.945 1.58777C14.5376 1.70389 14.1638 1.91553 13.8547 2.20511C13.5455 2.4947 13.3099 2.85386 13.1675 3.25277L12.9875 3.74777H9.01248L8.83248 3.25277C8.68874 2.85333 8.45182 2.49391 8.14139 2.20434C7.83095 1.91478 7.45595 1.70341 7.04748 1.58777C6.82737 1.52842 6.60044 1.49817 6.37248 1.49777Z" fill="#918A89"/>
</svg>
