<svg width="30" height="35" viewBox="0 0 30 35" fill="none" xmlns="http://www.w3.org/2000/svg">
<path d="M7.524 23.5118V31.4978H6.347V28.0548H2.299V31.4978H1.122V23.5118H2.299V26.9328H6.347V23.5118H7.524ZM9.12046 29.1438C9.12046 28.6818 9.23046 28.2675 9.45046 27.9008C9.67046 27.5268 9.97479 27.2335 10.3635 27.0208C10.7521 26.8081 11.1958 26.7018 11.6945 26.7018C12.2005 26.7018 12.6441 26.8081 13.0255 27.0208C13.4068 27.2335 13.7001 27.5268 13.9055 27.9008C14.1181 28.2675 14.2245 28.6818 14.2245 29.1438C14.2245 29.6058 14.1181 30.0238 13.9055 30.3978C13.7001 30.7718 13.4068 31.0688 13.0255 31.2888C12.6441 31.5015 12.1968 31.6078 11.6835 31.6078C11.1921 31.6078 10.7521 31.5088 10.3635 31.3108C9.98213 31.1128 9.67779 30.8305 9.45046 30.4638C9.23046 30.0898 9.12046 29.6498 9.12046 29.1438ZM10.2645 29.1548C10.2645 29.4408 10.3268 29.7011 10.4515 29.9358C10.5761 30.1631 10.7448 30.3465 10.9575 30.4858C11.1701 30.6178 11.4085 30.6838 11.6725 30.6838C11.9438 30.6838 12.1858 30.6178 12.3985 30.4858C12.6111 30.3465 12.7761 30.1631 12.8935 29.9358C13.0181 29.7011 13.0805 29.4408 13.0805 29.1548C13.0805 28.8688 13.0181 28.6121 12.8935 28.3848C12.7761 28.1575 12.6111 27.9741 12.3985 27.8348C12.1858 27.6955 11.9438 27.6258 11.6725 27.6258C11.4011 27.6258 11.1591 27.6955 10.9465 27.8348C10.7338 27.9741 10.5651 28.1611 10.4405 28.3958C10.3231 28.6231 10.2645 28.8761 10.2645 29.1548ZM16.5763 26.8888L16.6753 27.8788L16.6313 27.8018C16.8073 27.4571 17.0493 27.1895 17.3573 26.9988C17.6653 26.8008 18.021 26.7018 18.4243 26.7018C18.6736 26.7018 18.8973 26.7421 19.0953 26.8228C19.3006 26.9035 19.4693 27.0171 19.6013 27.1638C19.7333 27.3105 19.8176 27.4938 19.8543 27.7138L19.7993 27.7468C19.9826 27.4241 20.2246 27.1711 20.5253 26.9878C20.8333 26.7971 21.1596 26.7018 21.5043 26.7018C21.9516 26.7018 22.3073 26.8301 22.5713 27.0868C22.8426 27.3435 22.982 27.6735 22.9893 28.0768V31.4978H21.8673V28.5058C21.86 28.2785 21.805 28.0878 21.7023 27.9338C21.607 27.7798 21.4346 27.6955 21.1853 27.6808C20.9213 27.6808 20.6866 27.7615 20.4813 27.9228C20.2833 28.0841 20.1293 28.2931 20.0193 28.5498C19.9093 28.8065 19.8506 29.0815 19.8433 29.3748V31.4978H18.7103V28.5058C18.703 28.2785 18.648 28.0878 18.5453 27.9338C18.4426 27.7798 18.263 27.6955 18.0063 27.6808C17.7423 27.6808 17.5113 27.7615 17.3133 27.9228C17.1153 28.0841 16.9613 28.2968 16.8513 28.5608C16.7486 28.8175 16.6973 29.0888 16.6973 29.3748V31.4978H15.5643V26.8888H16.5763ZM26.8944 31.6078C26.3591 31.6078 25.9007 31.5051 25.5194 31.2998C25.1381 31.0871 24.8447 30.7975 24.6394 30.4308C24.4341 30.0568 24.3314 29.6315 24.3314 29.1548C24.3314 28.7001 24.4451 28.2895 24.6724 27.9228C24.9071 27.5488 25.2187 27.2518 25.6074 27.0318C26.0034 26.8118 26.4397 26.7018 26.9164 26.7018C27.5324 26.7018 28.0421 26.8815 28.4454 27.2408C28.8561 27.6001 29.1311 28.1025 29.2704 28.7478L25.5194 30.0458L25.2554 29.3858L28.2584 28.3078L28.0274 28.4508C27.9394 28.2235 27.8001 28.0255 27.6094 27.8568C27.4187 27.6808 27.1584 27.5928 26.8284 27.5928C26.5644 27.5928 26.3261 27.6588 26.1134 27.7908C25.9081 27.9155 25.7431 28.0915 25.6184 28.3188C25.5011 28.5388 25.4424 28.7991 25.4424 29.0998C25.4424 29.4078 25.5047 29.6791 25.6294 29.9138C25.7614 30.1411 25.9374 30.3208 26.1574 30.4528C26.3847 30.5848 26.6377 30.6508 26.9164 30.6508C27.1144 30.6508 27.3014 30.6141 27.4774 30.5408C27.6607 30.4675 27.8331 30.3758 27.9944 30.2658L28.5114 31.1018C28.2694 31.2558 28.0054 31.3805 27.7194 31.4758C27.4407 31.5638 27.1657 31.6078 26.8944 31.6078Z" fill="#650C01"/>
<path d="M7.22222 11.4978H5L15 1.4978L25 11.4978H22.7778M7.22222 11.4978V19.2756C7.22222 19.865 7.45635 20.4302 7.8731 20.8469C8.28984 21.2637 8.85507 21.4978 9.44444 21.4978H20.5556C21.1449 21.4978 21.7102 21.2637 22.1269 20.8469C22.5437 20.4302 22.7778 19.865 22.7778 19.2756V11.4978" stroke="#650C01" stroke-width="1.5" stroke-linecap="round" stroke-linejoin="round"/>
<path d="M12 21V15.2222C12 14.6329 12.2341 14.0676 12.6509 13.6509C13.0676 13.2341 13.6329 13 14.2222 13H16.4444C17.0338 13 17.599 13.2341 18.0158 13.6509C18.4325 14.0676 18.6667 14.6329 18.6667 15.2222V21" stroke="#650C01" stroke-width="1.5" stroke-linecap="round" stroke-linejoin="round"/>
</svg>
