<svg width="13" height="13" viewBox="0 0 13 13" fill="none" xmlns="http://www.w3.org/2000/svg">
<path d="M6.49998 1.08325C6.7031 1.08325 6.90352 1.09409 7.10123 1.11629C7.17194 1.12412 7.24041 1.14579 7.30274 1.18008C7.36507 1.21437 7.42003 1.26059 7.4645 1.31612C7.50896 1.37165 7.54205 1.4354 7.56188 1.50371C7.58171 1.57203 7.58789 1.64359 7.58006 1.71429C7.57224 1.785 7.55056 1.85347 7.51628 1.9158C7.48199 1.97813 7.43576 2.0331 7.38023 2.07756C7.3247 2.12202 7.26096 2.15511 7.19264 2.17494C7.12432 2.19477 7.05277 2.20095 6.98206 2.19313C6.08942 2.09327 5.18781 2.27326 4.40193 2.70821C3.61605 3.14316 2.98475 3.81157 2.59536 4.62098C2.20596 5.4304 2.07771 6.34081 2.22834 7.2263C2.37897 8.11179 2.80104 8.92859 3.43617 9.56373C4.0713 10.1989 4.8881 10.6209 5.77359 10.7716C6.65908 10.9222 7.5695 10.7939 8.37891 10.4045C9.18833 10.0151 9.85674 9.38385 10.2917 8.59797C10.7266 7.81209 10.9066 6.91048 10.8068 6.01783C10.7989 5.94713 10.8051 5.87557 10.825 5.80726C10.8448 5.73894 10.8779 5.67519 10.9223 5.61967C11.0121 5.50752 11.1428 5.43564 11.2856 5.41983C11.4284 5.40403 11.5716 5.4456 11.6838 5.5354C11.7393 5.57987 11.7855 5.63483 11.8198 5.69716C11.8541 5.75949 11.8758 5.82796 11.8836 5.89867C11.9053 6.09638 11.9166 6.29679 11.9166 6.49992C11.9166 9.49154 9.4916 11.9166 6.49998 11.9166C3.50835 11.9166 1.08331 9.49154 1.08331 6.49992C1.08331 3.50829 3.50835 1.08325 6.49998 1.08325ZM6.48265 4.26663C6.51834 4.40569 6.49738 4.55323 6.42435 4.67683C6.35132 4.80044 6.23221 4.89 6.09319 4.92583C5.71124 5.02589 5.37875 5.26149 5.15775 5.58868C4.93675 5.91586 4.84235 6.31228 4.89215 6.70396C4.94196 7.09564 5.13257 7.45582 5.42842 7.71728C5.72427 7.97875 6.10515 8.12364 6.49998 8.12492C6.8603 8.12488 7.21041 8.00517 7.49532 7.78458C7.78023 7.56398 7.9838 7.25501 8.07406 6.90617C8.11246 6.76986 8.20271 6.65401 8.32548 6.58343C8.44825 6.51285 8.59378 6.49316 8.73089 6.52857C8.868 6.56398 8.9858 6.65168 9.05904 6.77288C9.13228 6.89408 9.15514 7.03915 9.12273 7.177C8.95656 7.81396 8.56418 8.36865 8.0189 8.73742C7.47361 9.1062 6.81272 9.26384 6.15968 9.1809C5.50665 9.09796 4.90614 8.78011 4.47036 8.28673C4.03457 7.79335 3.79331 7.1582 3.79165 6.49992C3.79174 5.89947 3.99129 5.31606 4.35895 4.84133C4.72662 4.36661 5.24156 4.02746 5.8229 3.87717C5.89179 3.85941 5.9635 3.8554 6.03395 3.86536C6.10439 3.87533 6.17218 3.89907 6.23344 3.93524C6.29471 3.9714 6.34825 4.01928 6.39101 4.07614C6.43377 4.133 6.46491 4.19773 6.48265 4.26663ZM10.023 1.15204C10.1218 1.19304 10.2064 1.2624 10.2658 1.35138C10.3253 1.44036 10.3571 1.54497 10.3572 1.652V2.64325H11.3479C11.455 2.64327 11.5597 2.67506 11.6488 2.73458C11.7378 2.7941 11.8072 2.87868 11.8482 2.97765C11.8892 3.07661 11.8999 3.1855 11.879 3.29056C11.8582 3.39562 11.8066 3.49212 11.7309 3.56788L9.81498 5.48159C9.71342 5.58317 9.57567 5.64026 9.43202 5.64029H8.12498L7.13481 6.631C7.03317 6.73264 6.89532 6.78974 6.75158 6.78974C6.60784 6.78974 6.46999 6.73264 6.36835 6.631C6.26672 6.52936 6.20962 6.39151 6.20962 6.24777C6.20962 6.10403 6.26672 5.96618 6.36835 5.86454L7.35906 4.87492V3.56734C7.35909 3.42369 7.41618 3.28594 7.51777 3.18438L9.43256 1.26904C9.50831 1.19325 9.60484 1.14162 9.70994 1.1207C9.81503 1.09978 9.92398 1.1105 10.023 1.1515M9.27385 2.95904L8.4424 3.79158V4.5575H9.20831L10.0403 3.72604H9.81552C9.67186 3.72604 9.53409 3.66898 9.4325 3.56739C9.33092 3.46581 9.27385 3.32804 9.27385 3.18438V2.95904Z" fill="#D32A2A"/>
</svg>
